<?xml version="1.0" encoding="UTF-8"?>
<!-- Generator: Adobe Illustrator 25.0.0, SVG Export Plug-In . SVG Version: 6.00 Build 0)  -->
<svg version="1.1" id="Calque_1" xmlns="http://www.w3.org/2000/svg" xmlns:xlink="http://www.w3.org/1999/xlink" x="0px" y="0px" viewBox="0 0 212.6 99.2" style="enable-background:new 0 0 212.6 99.2;" xml:space="preserve">
<g>
	<path d="M103.9,41.2V24.6c0-2.8-1.4-4.1-4.1-4.1H79.1c-2.8,0-4.1,1.4-4.1,4.1v16.5c0,2.3-1,4.1-2.9,5.4c-1.9,1.3-4.2,1.9-6.8,1.9   c-2.6,0-4.8-0.6-6.8-1.9c-1.9-1.3-2.9-3.1-2.9-5.4V24.6c0-9.7,3.9-16.6,11.7-20.5c3.2-1.6,7.1-2.5,11.7-2.9h20.7   c9.7,0,16.6,3.9,20.5,11.7c1.6,3.2,2.5,7.1,2.9,11.7v16.5c0,2.3-1,4.1-2.9,5.4c-1.9,1.3-4.2,1.9-6.8,1.9c-2.6,0-4.8-0.6-6.8-1.9   C104.8,45.3,103.9,43.5,103.9,41.2z"/>
</g>
<g>
	<path d="M123.8,73.4h-20.7c-4.6-0.4-8.5-1.3-11.7-2.9c-7.8-4-11.7-10.8-11.7-20.5V33.4c0-2.3,1-4.1,2.9-5.4   c1.9-1.3,4.2-1.9,6.8-1.9c2.6,0,4.8,0.6,6.8,1.9c1.9,1.3,2.9,3.1,2.9,5.4V50c0,2.8,1.4,4.1,4.1,4.1h20.7c2.8,0,4.1-1.4,4.1-4.1   V33.4c0-2.3,1-4.1,2.9-5.4c1.9-1.3,4.2-1.9,6.8-1.9c2.6,0,4.8,0.6,6.8,1.9c1.9,1.3,2.9,3.1,2.9,5.4V50c-0.4,4.6-1.3,8.5-2.9,11.7   C140.4,69.5,133.6,73.4,123.8,73.4z"/>
</g>
<g>
	<g>
		<path d="M20.4,97h-2.7l-4.6-7.1V97h-3V84.2h2.7l4.6,7.1v-7.1h3V97z"/>
	</g>
	<g>
		<path d="M27.7,97.3c-1.4,0-2.5-0.5-3.5-1.5c-1-1-1.4-2.2-1.4-3.6c0-1.5,0.5-2.7,1.6-3.7c1-0.9,2.1-1.3,3.3-1.3    c0.9,0,1.8,0.2,2.5,0.7c0.8,0.5,1.4,1.1,1.8,1.8c0.4,0.8,0.7,1.6,0.7,2.5c0,0.9-0.2,1.7-0.7,2.5c-0.4,0.8-1.1,1.4-1.8,1.9    C29.5,97,28.7,97.3,27.7,97.3z M27.8,89.9c-0.6,0-1.1,0.2-1.5,0.6c-0.4,0.4-0.6,1-0.6,1.7c0,0.7,0.2,1.3,0.6,1.7    c0.4,0.4,0.9,0.6,1.5,0.6c0.6,0,1.1-0.2,1.5-0.6c0.4-0.4,0.6-1,0.6-1.7c0-0.7-0.2-1.2-0.6-1.7C28.9,90.1,28.4,89.9,27.8,89.9z"/>
	</g>
	<g>
		<path d="M37.3,97h-2.9v-9.6H37v0.4c0.1-0.1,0.2-0.1,0.3-0.2c0.7-0.5,1.5-0.6,2.4-0.1l0.3,0.1L39,90.1l-0.4-0.2    c-0.3-0.1-0.4-0.2-0.5-0.2c-0.2,0-0.4,0.2-0.6,0.5c-0.1,0.3-0.3,0.9-0.3,2.4l0,0.4V97z"/>
	</g>
	<g>
		<path d="M55.5,97h-2.9v-4.9c0-1.2-0.2-1.7-0.3-1.9c-0.2-0.3-0.4-0.4-0.8-0.4c-0.3,0-0.6,0.1-0.8,0.3c-0.3,0.2-0.4,0.4-0.6,0.8    c-0.1,0.4-0.2,0.9-0.2,1.8V97h-2.9v-4.7c0-0.8-0.1-1.3-0.2-1.7c-0.1-0.3-0.2-0.5-0.4-0.7c-0.4-0.3-1-0.3-1.4,0.1    c-0.3,0.2-0.4,0.4-0.6,0.8c-0.1,0.4-0.2,1-0.2,1.8V97h-2.9v-9.6h2.9V88c0.2-0.2,0.5-0.3,0.8-0.5c1-0.5,2.4-0.5,3.4,0.1    c0.4,0.2,0.7,0.5,0.9,0.9c0.3-0.4,0.7-0.7,1.1-0.9c1.2-0.6,2.7-0.6,3.7,0c0.5,0.3,0.9,0.8,1.2,1.3c0.2,0.5,0.3,1.3,0.3,2.5V97z"/>
	</g>
	<g>
		<path d="M62.1,97.3c-1.2,0-2.3-0.5-3.2-1.5c-0.9-1-1.3-2.2-1.3-3.6c0-1.5,0.4-2.7,1.3-3.6c0.9-1,2-1.4,3.2-1.4    c0.6,0,1.1,0.1,1.6,0.3c0.3,0.1,0.5,0.3,0.8,0.5v-0.6h2.9V97h-2.9v-0.5c-0.3,0.2-0.5,0.4-0.8,0.5C63.2,97.1,62.6,97.3,62.1,97.3z     M62.5,89.9c-0.6,0-1.1,0.2-1.4,0.6c-0.4,0.4-0.6,1-0.6,1.7c0,0.7,0.2,1.3,0.6,1.7c0.4,0.4,0.9,0.6,1.4,0.6c0.6,0,1.1-0.2,1.5-0.6    c0.4-0.4,0.6-1,0.6-1.7c0-0.7-0.2-1.3-0.6-1.7C63.6,90.1,63.1,89.9,62.5,89.9z"/>
	</g>
	<g>
		<path d="M78.5,97h-2.9v-4.3c0-1.3-0.1-1.8-0.1-2.1c-0.1-0.3-0.2-0.5-0.4-0.6c-0.2-0.1-0.4-0.2-0.6-0.2c-0.4,0-0.7,0.1-0.9,0.4    c-0.3,0.3-0.5,0.6-0.6,1.1c0,0.2-0.1,0.6-0.1,1.8V97h-2.9v-9.6h2.9v0.5c0.3-0.2,0.6-0.4,0.9-0.5c0.5-0.2,0.9-0.3,1.4-0.3    c1,0,1.8,0.3,2.5,1c0.6,0.6,0.9,1.5,0.9,2.6V97z"/>
	</g>
	<g>
		<path d="M85.1,97.3c-1.2,0-2.3-0.5-3.2-1.5c-0.9-1-1.3-2.2-1.3-3.6c0-1.5,0.4-2.7,1.3-3.6c0.9-1,2-1.4,3.2-1.4    c0.6,0,1.1,0.1,1.6,0.3c0.3,0.1,0.5,0.3,0.8,0.5v-4h2.9V97h-2.9v-0.5c-0.3,0.2-0.5,0.4-0.8,0.5C86.2,97.1,85.7,97.3,85.1,97.3z     M85.5,89.9c-0.6,0-1.1,0.2-1.4,0.6c-0.4,0.4-0.6,1-0.6,1.7c0,0.7,0.2,1.3,0.6,1.7c0.4,0.4,0.9,0.6,1.4,0.6c0.6,0,1.1-0.2,1.5-0.6    c0.4-0.4,0.6-1,0.6-1.7c0-0.7-0.2-1.3-0.6-1.7C86.6,90.1,86.1,89.9,85.5,89.9z"/>
	</g>
	<g>
		<path d="M95.7,97h-2.9v-9.6h2.9V97z M94.2,87c-0.5,0-0.9-0.2-1.3-0.5c-0.3-0.3-0.5-0.7-0.5-1.2c0-0.4,0.2-0.8,0.5-1.1    c0.7-0.6,1.8-0.7,2.5,0c0.3,0.3,0.5,0.7,0.5,1.2c0,0.4-0.2,0.8-0.5,1.2C95.1,86.8,94.7,87,94.2,87z"/>
	</g>
	<g>
		<path d="M102.6,97.3c-1.5,0-2.7-0.5-3.7-1.4c-0.9-0.9-1.4-2.1-1.4-3.6c0-1.4,0.5-2.7,1.4-3.6c0.9-1,2.1-1.5,3.5-1.5    c1.5,0,2.7,0.5,3.7,1.5c0.9,1,1.4,2.2,1.4,3.8l0,0.7h-7.1c0.1,0.4,0.3,0.7,0.6,1c0.4,0.3,0.9,0.5,1.5,0.5c0.7,0,1.4-0.3,1.9-0.8    l0.2-0.2l2.4,1.2l-0.2,0.3c-0.5,0.7-1.1,1.3-1.8,1.6C104.4,97.1,103.6,97.3,102.6,97.3z M100.7,90.8h3.8c-0.1-0.3-0.3-0.5-0.6-0.7    c-0.4-0.3-0.8-0.4-1.3-0.4c-0.5,0-1,0.1-1.4,0.5C101,90.3,100.9,90.5,100.7,90.8z"/>
	</g>
	<g>
		<path d="M119.9,97.3c-0.9,0-1.8-0.2-2.5-0.7c-0.7-0.4-1.2-1-1.5-1.7c-0.3-0.7-0.4-1.7-0.4-3.2v-7.6h3v8.2c0,0.8,0.1,1.2,0.2,1.3    c0.1,0.2,0.2,0.4,0.4,0.5c0.4,0.3,1.2,0.3,1.6,0c0.2-0.1,0.4-0.3,0.5-0.6c0.1-0.2,0.1-0.6,0.1-1.5v-7.9h3v7.6    c0,1.3-0.1,2.1-0.2,2.6c-0.1,0.5-0.4,1-0.8,1.5c-0.4,0.5-0.9,0.8-1.5,1.1C121.3,97.2,120.6,97.3,119.9,97.3z"/>
	</g>
	<g>
		<path d="M135.6,97h-2.9v-4.3c0-1.3-0.1-1.8-0.1-2.1c-0.1-0.3-0.2-0.5-0.4-0.6c-0.2-0.1-0.4-0.2-0.6-0.2c-0.4,0-0.7,0.1-0.9,0.4    c-0.3,0.3-0.5,0.6-0.6,1.1c0,0.2-0.1,0.6-0.1,1.8V97H127v-9.6h2.9v0.5c0.3-0.2,0.6-0.4,0.9-0.5c0.5-0.2,0.9-0.3,1.4-0.3    c1,0,1.8,0.3,2.5,1c0.6,0.6,0.9,1.5,0.9,2.6V97z"/>
	</g>
	<g>
		<path d="M140.7,97h-2.9v-9.6h2.9V97z M139.3,87c-0.5,0-0.9-0.2-1.3-0.5c-0.3-0.3-0.5-0.7-0.5-1.2c0-0.4,0.2-0.8,0.5-1.1    c0.7-0.6,1.8-0.6,2.5,0c0.3,0.3,0.5,0.7,0.5,1.1c0,0.4-0.2,0.8-0.5,1.1C140.2,86.8,139.8,87,139.3,87z"/>
	</g>
	<g>
		<path d="M147.9,97H146l-0.1-0.2l-4-9.4h3l2,4.7l2-4.7h3L147.9,97z"/>
	</g>
	<g>
		<path d="M158,97.3c-1.5,0-2.7-0.5-3.7-1.4c-0.9-0.9-1.4-2.1-1.4-3.6c0-1.4,0.5-2.7,1.4-3.6c0.9-1,2.1-1.5,3.5-1.5    c1.5,0,2.7,0.5,3.7,1.5c0.9,1,1.4,2.2,1.4,3.8l0,0.7h-7.1c0.1,0.4,0.3,0.7,0.6,1c0.4,0.3,0.9,0.5,1.5,0.5c0.7,0,1.4-0.3,1.9-0.8    l0.2-0.2l2.4,1.2l-0.2,0.3c-0.5,0.7-1.1,1.3-1.8,1.6C159.8,97.1,159,97.3,158,97.3z M156.1,90.8h3.8c-0.1-0.3-0.3-0.5-0.6-0.7    c-0.4-0.3-0.8-0.4-1.3-0.4c-0.5,0-1,0.1-1.4,0.5C156.5,90.3,156.3,90.5,156.1,90.8z"/>
	</g>
	<g>
		<path d="M167.5,97h-2.9v-9.6h2.6v0.4c0.1-0.1,0.2-0.1,0.3-0.2c0.7-0.5,1.5-0.6,2.4-0.1l0.3,0.1l-0.9,2.6l-0.4-0.2    c-0.3-0.1-0.4-0.2-0.5-0.2c-0.2,0-0.4,0.2-0.6,0.5c-0.1,0.3-0.3,0.9-0.3,2.4l0,0.4V97z"/>
	</g>
	<g>
		<path d="M174.2,97.3c-1.4,0-2.5-0.6-3.4-1.7l-0.2-0.2l1.8-2l0.3,0.3c0.2,0.3,0.5,0.5,0.8,0.7c0.6,0.3,1,0.3,1.2,0.1    c0.1-0.1,0.1-0.2,0.1-0.3c0-0.2-0.3-0.5-0.8-0.7l-0.7-0.4c-1.5-0.8-2.3-1.8-2.3-3c0-0.8,0.3-1.5,0.9-2c0.6-0.6,1.4-0.9,2.3-0.9    c0.6,0,1.2,0.1,1.8,0.4c0.6,0.3,1,0.7,1.4,1.2l0.2,0.2l-1.8,1.8l-0.3-0.3c-0.5-0.5-0.9-0.7-1.3-0.7c-0.2,0-0.3,0-0.4,0.1    c-0.1,0.1-0.1,0.1-0.1,0.2c0,0,0,0.1,0.1,0.1c0,0,0.1,0.1,0.6,0.3l0.8,0.4c0.9,0.5,1.5,0.9,1.9,1.4c0.4,0.5,0.5,1.1,0.5,1.7    c0,0.9-0.3,1.6-1,2.2C176.1,96.9,175.2,97.3,174.2,97.3z"/>
	</g>
	<g>
		<path d="M182.4,97h-2.9v-9.6h2.9V97z M181,87c-0.5,0-0.9-0.2-1.3-0.5c-0.3-0.3-0.5-0.7-0.5-1.2c0-0.4,0.2-0.8,0.5-1.1    c0.7-0.6,1.8-0.6,2.5,0c0.3,0.3,0.5,0.7,0.5,1.1c0,0.4-0.2,0.8-0.5,1.1C181.9,86.8,181.5,87,181,87z"/>
	</g>
	<g>
		<path d="M188,97H185v-7h-1.1v-2.6h1.1v-3.3h2.9v3.3h1.3V90H188V97z"/>
	</g>
	<g>
		<path d="M195.4,97.3c-1.5,0-2.7-0.5-3.7-1.4c-0.9-0.9-1.4-2.1-1.4-3.6c0-1.4,0.5-2.7,1.4-3.6c0.9-1,2.1-1.5,3.5-1.5    c1.5,0,2.7,0.5,3.7,1.5c0.9,1,1.4,2.2,1.4,3.8l0,0.7h-7.1c0.1,0.4,0.3,0.7,0.6,1c0.4,0.3,0.9,0.5,1.5,0.5c0.7,0,1.4-0.3,1.9-0.8    l0.2-0.2l2.4,1.2l-0.2,0.3c-0.5,0.7-1.1,1.3-1.8,1.6C197.2,97.1,196.4,97.3,195.4,97.3z M193.5,90.8h3.8c-0.1-0.3-0.3-0.5-0.6-0.7    c-0.4-0.3-0.8-0.4-1.3-0.4c-0.5,0-1,0.1-1.4,0.5C193.8,90.3,193.7,90.5,193.5,90.8z M195.5,86.4h-2.3l2.3-3.9h3.6L195.5,86.4z"/>
	</g>
</g>
</svg>