<?xml version="1.0" encoding="utf-8"?>
<!-- Generator: Adobe Illustrator 24.3.0, SVG Export Plug-In . SVG Version: 6.00 Build 0)  -->
<svg version="1.1" xmlns="http://www.w3.org/2000/svg" xmlns:xlink="http://www.w3.org/1999/xlink" x="0px" y="0px"
	 viewBox="0 0 709.78 642.81" style="enable-background:new 0 0 709.78 642.81;" xml:space="preserve">
<style type="text/css">
	.st0{fill:#000091;}
	.st1{fill:#E1000F;}
	.st2{fill:#9D9D9C;}
	.st3{fill:none;}
</style>
<g id="vect">
	<g>
		<g>
			<g>
				<path d="M84,209.58h19.31c13.89,0,22.47,7.13,22.47,18.86c0,7.58-3.7,13.26-10.11,16.33l19.85,27.97h-15.34L103.4,247.2h-6.59
					v25.53H84V209.58z M96.82,220.49v15.79h7.22c5.41,0,8.57-2.89,8.57-8.03c0-4.78-3.16-7.76-8.57-7.76H96.82z"/>
				<path d="M143.46,209.58h36.81v10.92h-24v14.62h20.39v10.92h-20.39v15.79h24v10.92h-36.81V209.58z M155.92,204.16l10.2-12.18
					h13.17l-11.73,12.18H155.92z"/>
				<path d="M195.16,209.58h20.84c13.89,0,22.38,7.13,22.38,18.86c0,11.64-8.48,18.77-22.38,18.77h-8.03v25.53h-12.81V209.58z
					 M207.98,220.49v15.79h8.57c5.41,0,8.66-2.89,8.66-8.03c0-4.78-3.25-7.76-8.66-7.76H207.98z"/>
				<path d="M286.2,209.58h12.81v38.44c0,16.6-9.74,26.53-25.62,26.53c-15.79,0-25.53-9.92-25.53-26.53v-38.44h12.81v39.52
					c0,8.48,4.78,13.44,12.81,13.44c7.85,0,12.72-4.96,12.72-13.44V209.58z"/>
				<path d="M314.9,209.58h17.96c13.17,0,21.11,6.5,21.11,17.14c0,5.05-2.35,9.47-6.68,12.45c6.68,2.98,10.38,8.39,10.38,14.98
					c0,11.55-8.93,18.59-23.46,18.59H314.9V209.58z M327.71,220.49v13.8h5.41c4.87,0,7.67-2.44,7.67-6.95c0-4.24-2.8-6.86-7.67-6.86
					H327.71z M327.71,245.3v16.51h7.22c5.96,0,9.56-3.16,9.56-8.39s-3.61-8.12-9.56-8.12H327.71z"/>
				<path d="M370.75,209.58h12.81v51.52h24v11.64h-36.81V209.58z"/>
				<path d="M418.84,209.58h12.81v63.16h-12.81V209.58z"/>
				<path d="M515.56,277.15c1.35,0,3.16-0.18,4.51-0.72v10.83c-2.08,0.81-3.88,1.17-6.68,1.17c-7.04,0-13.53-2.89-19.76-8.3
					l-7.49-6.68c-2.71,0.72-5.59,1.08-8.66,1.08c-19.94,0-33.56-15.34-33.56-33.38c0-18.05,13.62-33.38,33.56-33.38
					c19.85,0,33.47,15.34,33.47,33.38c0,10.56-4.69,20.21-12.45,26.35l3.79,3.61C507.17,275.53,511.5,277.15,515.56,277.15z
					 M497.79,241.15c0-12.09-8.48-21.38-20.3-21.38c-11.91,0-20.39,9.29-20.39,21.38c0,12.09,8.48,21.38,20.39,21.38
					C489.31,262.54,497.79,253.24,497.79,241.15z"/>
				<path d="M560.5,209.58h12.81v38.44c0,16.6-9.74,26.53-25.62,26.53c-15.79,0-25.53-9.92-25.53-26.53v-38.44h12.81v39.52
					c0,8.48,4.78,13.44,12.81,13.44c7.85,0,12.72-4.96,12.72-13.44V209.58z"/>
				<path d="M589.19,209.58H626v10.92h-24v14.62h20.39v10.92H602v15.79h24v10.92h-36.81V209.58z"/>
				<path d="M84,300.65h36.81v10.92h-24v14.62h20.39v10.92H96.82v26.71H84V300.65z"/>
				<path d="M132.1,300.65h19.31c13.89,0,22.47,7.13,22.47,18.86c0,7.58-3.7,13.26-10.11,16.33l19.85,27.97h-15.34l-16.78-25.53
					h-6.59v25.53H132.1V300.65z M144.91,311.56v15.79h7.22c5.41,0,8.57-2.89,8.57-8.03c0-4.78-3.16-7.76-8.57-7.76H144.91z"/>
				<path d="M210.23,300.65h16.78l23.91,63.16H237.3l-6.04-16.42h-25.26l-6.04,16.42h-13.62L210.23,300.65z M227.28,336.46
					l-8.66-23.73l-8.66,23.73H227.28z"/>
				<path d="M260.67,300.65h16.42l28.24,45.2v-45.2h12.81v63.16h-16.42l-28.24-45.38v45.38h-12.81V300.65z"/>
				<path d="M380.49,344.95l10.11,7.76c-4.87,6.68-12.45,11.37-21.65,12.54l-7.85,13.08h-11.37l7.94-13.26
					c-16.42-2.89-27.25-16.78-27.25-32.84c0-18.04,13.62-33.38,33.56-33.38c11.46,0,20.84,5.14,26.62,12.81l-10.11,7.85
					c-3.61-5.14-9.29-8.66-16.51-8.66c-11.91,0-20.39,9.29-20.39,21.38s8.48,21.38,20.39,21.38
					C371.2,353.61,376.88,350.09,380.49,344.95z"/>
				<path d="M417.22,300.65H434l23.91,63.16h-13.62l-6.04-16.42h-25.26l-6.04,16.42h-13.62L417.22,300.65z M434.27,336.46
					l-8.66-23.73l-8.66,23.73H434.27z"/>
				<path d="M467.65,300.65h12.81v63.16h-12.81V300.65z"/>
				<path d="M501.76,346.48c3.79,4.87,8.84,7.76,13.98,7.76c5.05,0,8.12-2.71,8.12-7.31c0-11.28-28.87-8.75-28.87-29.77
					c0-10.02,8.21-18.32,20.21-18.32c9.47,0,16.78,4.24,22.11,10.65l-9.38,8.39c-3.7-4.78-7.85-7.85-12.63-7.85
					c-4.42,0-7.31,2.89-7.31,6.59c0,11.28,28.87,8.66,28.87,30.05c-0.18,11.73-9.38,18.95-20.93,18.95
					c-10.65,0-17.86-3.88-23.46-10.56L501.76,346.48z"/>
				<path d="M550.3,300.65h36.81v10.92h-24v14.62h20.39v10.92h-20.39v15.79h24v10.92H550.3V300.65z"/>
			</g>
		</g>
		<g>
			<path d="M289.52,538.2c1.71,0,3.2,1.3,2.41,4.58l-7.96,1.85C285.35,540.93,287.67,538.2,289.52,538.2 M293.92,551.02h-1.57
				c-1.99,2.36-4.12,4.21-6.25,4.21c-2.18,0-3.29-1.3-3.29-4.21c0-1.2,0.14-2.41,0.37-3.52l12.83-4.21c2.5-5.93-0.51-8.52-4.03-8.52
				c-6.07,0-12.97,10.14-12.97,19.03c0,3.98,1.9,6.16,4.86,6.16C287.34,559.96,290.95,556.58,293.92,551.02 M291.37,532.41
				l9.03-8.43v-0.97h-4.86l-5.56,9.4H291.37z M263.68,538.34h4.26l-6.76,18.48c-0.6,1.57,0.23,3.15,1.85,3.15
				c3.84,0,10.05-3.8,12.23-8.98h-1.2c-1.71,1.81-5,4.21-7.83,4.72l6.21-17.37h6.34l0.79-2.64h-6.16l2.36-6.67h-2.45l-4.4,6.67
				l-5.23,0.74V538.34z M257.94,537.46c0.51-1.71-0.65-2.69-1.53-2.69c-3.7,0-8.1,3.33-9.86,8.01h1.2c1.2-1.71,3.24-3.61,5.14-3.94
				l-7.08,18.43c-0.65,1.71,0.65,2.69,1.53,2.69c3.52,0,7.64-3.38,9.4-8.01h-1.2c-1.2,1.71-3.24,3.61-5.14,3.94L257.94,537.46z
				 M259.23,528.2c1.67,0,3.06-1.34,3.06-3.06c0-1.67-1.39-3.06-3.06-3.06c-1.71,0-3.06,1.39-3.06,3.06
				C256.18,526.85,257.52,528.2,259.23,528.2 M218.44,556.54c-0.93,2.08,0.05,3.43,2.08,3.43c1.25,0,1.81-0.32,2.32-1.67l4.91-13.01
				c2.27-2.78,6.95-5.74,8.8-5.74c1.34,0,1.16,1.11,0.28,2.78l-7.55,14.49c-0.74,1.44,0.23,3.15,1.85,3.15c3.7,0,8.1-3.33,9.86-8.01
				h-1.2c-1.2,1.71-3.24,3.61-5.14,3.94l6.48-13.1c0.83-1.67,1.25-3.24,1.25-4.49c0-2.13-1.2-3.52-3.43-3.52
				c-3.2,0-6.44,3.61-10.28,8.06v-3.43c0-2.45-0.79-4.63-3.01-4.63c-1.39,0-2.73,1.2-3.98,2.92v0.46c2.41-0.14,3.47,3.47,1.76,7.27
				L218.44,556.54z M218.35,540.42c0.88-3.01,0.42-5.65-1.9-5.65c-2.73,0-3.43,2.08-6.21,8.06v-3.43c0-2.45-0.79-4.63-3.01-4.63
				c-2.59,0-4.95,4.03-6.76,8.01h1.2c1.25-1.81,2.41-2.87,3.33-2.87c1.11,0,1.71,1.71,0,5.51l-5,11.11
				c-0.93,2.08,0.05,3.43,2.08,3.43c1.25,0,1.81-0.32,2.32-1.67l4.91-13.01c1.39-1.71,2.64-3.2,4.21-4.86H218.35z M189.91,538.2
				c1.71,0,3.2,1.3,2.41,4.58l-7.96,1.85C185.75,540.93,188.06,538.2,189.91,538.2 M194.31,551.02h-1.57
				c-1.99,2.36-4.12,4.21-6.25,4.21c-2.18,0-3.29-1.3-3.29-4.21c0-1.2,0.14-2.41,0.37-3.52l12.83-4.21c2.5-5.93-0.51-8.52-4.03-8.52
				c-6.07,0-12.97,10.14-12.97,19.03c0,3.98,1.9,6.16,4.86,6.16C187.74,559.96,191.35,556.58,194.31,551.02 M164.08,538.34h4.26
				l-6.76,18.48c-0.6,1.57,0.23,3.15,1.85,3.15c3.84,0,10.05-3.8,12.23-8.98h-1.2c-1.71,1.81-5,4.21-7.83,4.72l6.21-17.37h6.34
				l0.79-2.64h-6.16l2.36-6.67h-2.45l-4.4,6.67l-5.23,0.74V538.34z M140.69,552.74c0-5.7,6.34-13.43,9.91-13.43
				c0.79,0,1.53,0.09,2.18,0.28l-3.7,9.86c-2.13,2.59-5.42,5.74-6.95,5.74C141.25,555.19,140.69,554.45,140.69,552.74
				 M160.19,533.71l-1.94-0.14l-2.18,2.13h-0.46c-10.56,0-19.68,11.85-19.68,20.47c0,2.41,1.48,3.8,3.8,3.8
				c2.73,0,5.42-3.89,8.43-8.06l-0.14,1.48c-0.37,4.26,0.93,6.58,3.15,6.58c2.59,0,4.95-4.03,6.76-8.01h-1.2
				c-1.25,1.81-2.41,2.87-3.33,2.87c-0.97,0-1.67-1.76,0-5.51L160.19,533.71z M137.68,540.42c0.88-3.01,0.42-5.65-1.9-5.65
				c-2.73,0-3.43,2.08-6.21,8.06v-3.43c0-2.45-0.79-4.63-3.01-4.63c-2.59,0-4.95,4.03-6.76,8.01h1.2c1.25-1.81,2.41-2.87,3.33-2.87
				c1.11,0,1.71,1.71,0,5.51l-5,11.11c-0.93,2.08,0.05,3.43,2.08,3.43c1.25,0,1.81-0.32,2.32-1.67l4.91-13.01
				c1.39-1.71,2.64-3.2,4.21-4.86H137.68z M102.21,559.04l0.46-1.44c-6.16-1.16-6.95-1.16-4.49-7.87l2.5-6.9h6.81
				c3.06,0,3.1,1.25,2.64,4.58h1.76l4.08-11.16h-1.76c-1.53,2.64-2.73,4.58-6.07,4.58h-6.71l3.57-9.77c1.11-3.1,1.76-3.75,5.93-3.75
				h2.96c4.31,0,4.82,1.16,4.82,5.51h1.71l1.44-7.59H96.28l-0.46,1.44c4.95,1.02,5.42,1.48,3.1,7.87l-5.56,15.19
				c-2.32,6.34-3.29,6.85-8.98,7.87l-0.42,1.44H102.21z"/>
			<path d="M227.52,480.31c1.71,0,3.2,1.3,2.41,4.58l-7.96,1.85C223.35,483.05,225.66,480.31,227.52,480.31 M231.91,493.14h-1.57
				c-1.99,2.36-4.12,4.21-6.25,4.21c-2.18,0-3.29-1.3-3.29-4.21c0-1.2,0.14-2.41,0.37-3.52l12.83-4.21c2.5-5.93-0.51-8.52-4.03-8.52
				c-6.07,0-12.97,10.14-12.97,19.03c0,3.98,1.9,6.16,4.86,6.16C225.34,502.08,228.95,498.7,231.91,493.14 M229.37,474.53l9.03-8.43
				v-0.97h-4.86l-5.56,9.4H229.37z M201.68,480.45h4.26l-6.76,18.48c-0.6,1.57,0.23,3.15,1.85,3.15c3.84,0,10.05-3.8,12.23-8.98
				h-1.2c-1.71,1.81-5,4.21-7.83,4.72l6.21-17.37h6.34l0.79-2.64h-6.16l2.36-6.67h-2.45l-4.4,6.67l-5.23,0.74V480.45z
				 M195.93,479.57c0.51-1.71-0.65-2.69-1.53-2.69c-3.7,0-8.1,3.33-9.86,8.01h1.2c1.2-1.71,3.24-3.61,5.14-3.94l-7.08,18.43
				c-0.65,1.71,0.65,2.69,1.53,2.69c3.52,0,7.64-3.38,9.4-8.01h-1.2c-1.2,1.71-3.24,3.61-5.14,3.94L195.93,479.57z M197.23,470.31
				c1.67,0,3.06-1.34,3.06-3.06c0-1.67-1.39-3.06-3.06-3.06c-1.71,0-3.06,1.39-3.06,3.06C194.18,468.97,195.52,470.31,197.23,470.31
				 M172.6,498l12.92-33.85l-0.42-0.51l-8.1,0.93v0.97l1.57,1.2c1.44,1.11,0.97,2.18-0.32,5.6l-10.09,26.58
				c-0.74,1.44,0.23,3.15,1.85,3.15c3.7,0,7.64-3.33,9.4-8.01h-1.2C177,495.78,174.49,497.68,172.6,498 M148.05,494.85
				c0-5.7,6.34-13.43,9.91-13.43c0.79,0,1.53,0.09,2.18,0.28l-3.7,9.86c-2.13,2.59-5.42,5.74-6.95,5.74
				C148.61,497.31,148.05,496.57,148.05,494.85 M167.55,475.82l-1.94-0.14l-2.18,2.13h-0.46c-10.56,0-19.68,11.85-19.68,20.47
				c0,2.41,1.48,3.8,3.8,3.8c2.73,0,5.42-3.89,8.43-8.06l-0.14,1.48c-0.37,4.26,0.93,6.58,3.15,6.58c2.59,0,4.95-4.03,6.76-8.01
				h-1.2c-1.25,1.81-2.41,2.87-3.33,2.87c-0.97,0-1.67-1.76,0-5.51L167.55,475.82z M120.41,506.57c0-2.45,2.36-3.98,5.74-5.33
				c1.11,0.56,2.78,1.16,5,1.9c3.52,1.16,4.86,1.62,4.86,2.69c0,2.27-3.84,3.98-9.08,3.98
				C122.54,509.81,120.41,508.89,120.41,506.57 M129.99,491.61c-1.53,0-2.13-1.3-2.13-2.78c0-4.12,2.22-10.19,5.7-10.19
				c1.53,0,2.13,1.3,2.13,2.78C135.69,485.55,133.47,491.61,129.99,491.61 M140.04,504.3c0-2.96-2.64-4.03-6.95-5.33
				c-3.7-1.11-5.37-1.44-5.37-2.64c0-0.97,0.79-2.13,2.36-2.96c6.07-0.32,10-5.79,10-10.37c0-0.97-0.19-1.81-0.51-2.55h5.14
				l0.79-2.64h-8.15c-0.97-0.6-2.13-0.93-3.29-0.93c-6.44,0-10.6,5.65-10.6,10.23c0,3.47,2.22,5.65,4.91,6.16
				c-3.01,1.34-4.68,2.92-4.68,4.77c0,1.07,0.37,1.81,1.25,2.5c-6.95,2.04-9.68,4.35-9.68,7.64c0,3.2,4.21,4.54,9.22,4.54
				C132.96,512.73,140.04,508.14,140.04,504.3 M107.67,484.48c3.06,0,3.1,1.25,2.64,4.58h1.76l4.08-11.16h-1.76
				c-1.53,2.64-2.73,4.58-6.07,4.58h-6.71l3.38-9.31c1.11-3.1,1.76-3.7,5.93-3.7h2.96c4.31,0,4.82,1.16,4.82,5.46h1.71l1.44-7.59
				H96.28l-0.46,1.44c4.95,1.02,5.42,1.48,3.1,7.87l-5.56,15.19c-2.32,6.34-3.29,6.85-8.98,7.87l-0.42,1.44h28.43l5.09-8.06h-1.94
				c-3.24,3.06-7.32,5.97-13.01,5.97c-7.55,0-6.85-0.32-4.35-7.22l2.69-7.36H107.67z M111.38,465.08l9.03-6.21v-0.97h-5.46l-5,7.18
				H111.38z"/>
			<path d="M224.5,422.43c1.71,0,3.2,1.3,2.41,4.58l-7.96,1.85C220.34,425.16,222.65,422.43,224.5,422.43 M228.9,435.26h-1.57
				c-1.99,2.36-4.12,4.21-6.25,4.21c-2.18,0-3.29-1.3-3.29-4.21c0-1.2,0.14-2.41,0.37-3.52l12.83-4.21c2.5-5.93-0.51-8.52-4.03-8.52
				c-6.07,0-12.97,10.14-12.97,19.03c0,3.98,1.9,6.16,4.86,6.16C222.33,444.19,225.94,440.81,228.9,435.26 M226.36,416.64l9.03-8.43
				v-0.97h-4.86l-5.56,9.4H226.36z M199.82,422.57h3.38l-6.76,18.48c-0.6,1.57,0.23,3.15,1.85,3.15c3.84,0,10.05-3.8,12.23-8.98
				h-1.2c-1.71,1.81-5,4.21-7.83,4.72l6.21-17.37h6.34l0.79-2.64h-6.16l2.36-6.67h-2.45l-4.4,6.67l-4.35,0.74V422.57z
				 M196.49,424.65c0.88-3.01,0.42-5.65-1.9-5.65c-2.73,0-3.43,2.08-6.21,8.06v-3.43c0-2.45-0.79-4.63-3.01-4.63
				c-2.59,0-4.95,4.03-6.76,8.01h1.2c1.25-1.81,2.41-2.87,3.33-2.87c1.11,0,1.71,1.71,0,5.51l-5,11.11
				c-0.93,2.08,0.05,3.43,2.08,3.43c1.25,0,1.81-0.32,2.32-1.67l4.91-13.01c1.39-1.71,2.64-3.2,4.21-4.86H196.49z M168.06,422.43
				c1.71,0,3.2,1.3,2.41,4.58l-7.96,1.85C163.89,425.16,166.21,422.43,168.06,422.43 M172.46,435.26h-1.57
				c-1.99,2.36-4.12,4.21-6.25,4.21c-2.18,0-3.29-1.3-3.29-4.21c0-1.2,0.14-2.41,0.37-3.52l12.83-4.21c2.5-5.93-0.51-8.52-4.03-8.52
				c-6.07,0-12.97,10.14-12.97,19.03c0,3.98,1.9,6.16,4.86,6.16C165.88,444.19,169.49,440.81,172.46,435.26 M141.01,440.44
				c-1.25,0-3.06-1.16-3.06-2.18c0-0.32,0.56-1.76,1.25-3.57l2.08-5.51c2.22-2.64,5.6-5.46,7.5-5.46c1.16,0,2.04,0.74,2.04,2.45
				C150.83,431.23,146.11,440.44,141.01,440.44 M155.6,424.14c0-3.75-1.39-5.14-3.98-5.14c-3.24,0-6.3,3.43-9.35,7.59l7.73-20.33
				l-0.42-0.51l-8.1,0.93v0.97l1.57,1.2c1.44,1.11,0.97,2.27-0.32,5.6l-8.34,21.49c-0.6,1.57-1.34,3.43-1.34,3.94
				c0,2.22,3.01,4.31,5.74,4.31C145.09,444.19,155.6,432.85,155.6,424.14 M130.41,421.69c0.51-1.71-0.65-2.69-1.53-2.69
				c-3.7,0-8.1,3.33-9.86,8.01h1.2c1.2-1.71,3.24-3.61,5.14-3.94l-7.08,18.43c-0.65,1.71,0.65,2.69,1.53,2.69
				c3.52,0,7.64-3.38,9.4-8.01H128c-1.2,1.71-3.24,3.61-5.14,3.94L130.41,421.69z M131.71,412.43c1.67,0,3.06-1.34,3.06-3.06
				c0-1.67-1.39-3.06-3.06-3.06c-1.71,0-3.06,1.39-3.06,3.06C128.65,411.09,129.99,412.43,131.71,412.43 M113.05,409.46H96.19
				l-0.46,1.44c4.95,1.02,5.42,1.48,3.1,7.87l-5.46,15.19c-2.32,6.34-3.29,6.85-8.98,7.87l-0.42,1.44h25.65l5.56-9.91h-1.94
				c-3.15,3.47-6.85,7.83-12.55,7.83c-4.31,0-4.82-0.74-2.5-7.22l5.46-15.19c2.27-6.34,3.29-6.85,8.98-7.87L113.05,409.46z"/>
		</g>
		<g>
			<path class="st0" d="M179.13,157.76c0.9-0.9,1.81-1.87,2.71-2.84h-0.02c1.68-1.91,3.33-3.72,5.29-5.39
				c0.59-0.53,1.17-1,1.72-1.38c0.16-0.16,0.16-0.48,0.32-0.63c-0.79,0.32-1.27,0.95-2.06,1.27c-0.16,0-0.32-0.16-0.16-0.32
				c0.56-0.42,1.13-0.85,1.69-1.27c-0.03,0-0.07,0-0.11,0c-0.16,0-0.16-0.16-0.16-0.32c-2.06-0.32-3.65,1.11-5.07,2.38
				c-0.32,0.16-0.63-0.16-0.79-0.16c-2.38,0.79-4.12,2.85-6.5,3.8c0-0.16,0-0.16,0-0.32c-0.95,0.32-1.87,0.89-2.85,1.11
				c-1.43,0.32-2.69,0.16-3.96,0.16c-1.92,0.19-3.84,0.62-5.76,1.03c-0.06,0.01-0.11,0.03-0.17,0.04c-1.03,0.28-2,0.67-2.95,1.19
				c-0.04,0.02-0.07,0.04-0.11,0.06c-0.08,0.1-0.16,0.19-0.23,0.27c-0.34,0.37-0.63,0.72-1.09,0.95c-0.97,0.5-1.77,1.36-2.63,2.06
				c-0.06,0.05-0.16,0.07-0.25,0.08c-0.85,0.82-1.69,1.64-2.55,2.44c-0.06,0.06-0.31,0.09-0.48,0.06c0-0.01,0.01-0.01,0.01-0.01
				c0.03-0.05,0.06-0.1,0.09-0.15c0.13-0.22,0.27-0.45,0.41-0.67c0.15-0.25,0.31-0.49,0.47-0.74c0.22-0.33,0.44-0.65,0.67-0.96
				c0.06-0.08,0.04-0.15-0.01-0.21c-0.05-0.05-0.13-0.08-0.22-0.08c0.79-0.77,1.73-1.42,2.66-1.99c0-0.01,0-0.02,0-0.03
				c-0.11,0.04-0.26-0.05-0.18-0.16c0.1-0.14,0.18-0.29,0.27-0.43c0.02-0.05,0.03-0.09,0.05-0.14c-0.04-0.04-0.08-0.08-0.12-0.13
				c-0.26,0.17-0.53,0.32-0.74,0.52c-0.38,0.34-0.68,1.04-1.25,1.03c-0.04,0-0.15-0.01-0.24-0.03c-0.07-0.01-0.13-0.03-0.17-0.06
				c0.01-0.01,0.01-0.02,0.02-0.04c0.01-0.01,0.02-0.03,0.02-0.04c0.01-0.01,0.02-0.03,0.02-0.04c0.02-0.05,0.05-0.09,0.08-0.14
				c0.03-0.05,0.05-0.09,0.08-0.14c0.02-0.04,0.04-0.07,0.06-0.11c0.04-0.07,0.07-0.13,0.11-0.2c0.03-0.05,0.06-0.1,0.08-0.14
				c0.07-0.12,0.14-0.23,0.2-0.35c0.03-0.06,0.07-0.11,0.1-0.17c0.06-0.1,0.11-0.19,0.17-0.29c0.08-0.13,0-0.24-0.12-0.28
				c0.29-0.38,0.65-0.7,1.09-0.95h-0.05c0.61-0.31,1.21-0.68,1.82-1.02c0.09-0.08,0.17-0.15,0.26-0.23c-0.9,0.3-1.72,0.71-2.52,1.24
				c0,0-0.21,0.09-0.27,0.14c0,0-0.18,0.07-0.4-0.14c-0.02-0.03-0.04-0.06-0.04-0.12c0.16-0.32,0.63-0.48,0.95-0.79
				c0.16,0,0.32,0,0.32,0.16c5.07-3.96,12.04-3.01,17.91-5.07c0.48-0.32,0.95-0.63,1.43-0.95c0.79-0.32,1.43-1.11,2.38-1.58
				c1.27-0.95,2.22-2.06,2.69-3.64c0-0.16-0.16-0.32-0.16-0.32c-2.06,2.22-4.44,3.96-6.97,5.23c-3.33,1.74-6.97,1.43-10.46,1.9
				c0.16-0.32,0.48-0.32,0.79-0.32c0-0.48,0.32-0.63,0.63-0.95c0.16,0,0.32,0,0.48,0c0.16,0,0.16-0.32,0.32-0.32
				c0.32,0,0.79-0.16,0.63-0.16c-0.48-0.63-1.43,0.48-2.22,0c0.32-0.32,0.16-0.79,0.48-0.95c0.16,0,0.48,0,0.63,0
				c0-0.32,0.32-0.63,0.32-0.63c2.38-1.43,4.6-2.54,6.81-3.8c-0.48,0-0.79,0.48-1.27,0.16c0.32,0,0-0.48,0.32-0.48
				c1.74-0.48,3.17-1.43,4.91-2.06c-0.63,0-1.11,0.48-1.74,0c0.32-0.16,0.48-0.48,0.95-0.48c0-0.16,0-0.32,0-0.48
				c0-0.16,0.16-0.16,0.32-0.16c-0.16,0-0.32-0.16-0.32-0.16c0.16-0.32,0.63-0.16,0.95-0.48c-0.16,0-0.48,0-0.48-0.16
				c0.48-0.63,1.27-0.79,2.06-0.95c-0.16-0.32-0.63,0-0.63-0.32c0-0.16,0.16-0.16,0.32-0.16c-0.16,0-0.16,0-0.32,0
				c-0.32-0.16-0.16-0.48-0.16-0.63c0.95-1.11,0.95-2.54,1.43-3.8c-0.16,0-0.32,0-0.32-0.16c-1.58,1.74-4.12,2.38-6.5,3.01
				c-0.16,0-0.63,0-0.79,0c-0.79,0.32-1.9,0.32-2.69-0.16c-0.63-0.32-0.95-0.79-1.58-1.27c-1.27-0.79-2.54-1.43-3.96-1.9
				c-3.96-1.27-8.08-1.9-12.2-1.74c1.74-0.95,3.67-1.03,5.55-1.58c2.69-0.79,5.23-1.74,8.08-1.58c-0.48-0.16-1.11,0-1.58,0
				c-2.22-0.16-4.44,0.48-6.81,0.95c-1.58,0.32-3.01,0.95-4.6,1.27c-0.95,0.32-1.43,1.27-2.54,1.11c0,0,0-0.32,0-0.48
				c1.58-1.9,3.49-3.8,6.02-3.96c2.85-0.48,5.55,0,8.4,0.32c2.06,0.16,3.96,0.63,6.02,1.11c0.79,0,0.95,1.27,1.59,1.43
				c0.95,0.32,1.9,0,2.85,0.63c0-0.32-0.16-0.63,0-0.95c0.63-0.63,1.43,0.16,2.06-0.16c1.27-0.79-1.11-2.22-1.74-3.33
				c0-0.16,0.16-0.32,0.16-0.32c1.27,1.11,2.22,2.38,3.8,3.17c0.79,0.32,2.69,0.79,2.38-0.16c-0.79-1.74-2.38-3.17-3.64-4.75
				c0-0.16,0-0.48,0-0.63c-0.32,0-0.32-0.16-0.48-0.32c0-0.16,0-0.48,0-0.63c-0.63-0.32-0.48-0.95-0.79-1.43
				c-0.48-0.79-0.16-1.9-0.48-2.85c-0.32-0.95-0.48-1.74-0.63-2.69c-0.48-2.69-1.11-5.07-1.43-7.61c-0.32-3.01,1.74-5.39,3.17-8.08
				c1.11-1.9,2.38-3.8,4.44-5.07c0.48-1.9,1.74-3.49,3.01-5.07c1.27-1.55,3.37-2.49,4.89-3.17c2.21-0.99,4.21-1.61,4.21-1.61H83.78
				v83.86h77.02c3.02-2.17,6.03-3.2,10.24-5.28C173.04,161.39,177.59,159.3,179.13,157.76z M154.76,146.41
				c-0.32,0-0.95,0.16-0.79-0.16c0.16-0.79,1.27-0.79,1.9-1.11c0.32-0.16,0.79-0.48,1.11-0.32c0.32,0.48,0.79,0.32,1.11,0.63
				C157.13,146.41,155.87,145.93,154.76,146.41z M130.51,142.92c0,0-0.16-0.16-0.16-0.32c2.06-2.69,3.64-5.23,5.07-8.08
				c2.06-1.11,3.77-2.72,5.39-4.44c2.69-2.85,5.55-5.39,8.87-6.97c1.27-0.48,2.85-0.32,4.12,0.16c-0.48,0.63-1.27,0.48-1.9,0.95
				c-0.16,0-0.32,0-0.48-0.16c0.16-0.16,0.16-0.32,0.16-0.48c-1.58,1.74-3.8,2.54-5.07,4.6c-0.95,1.58-1.58,3.65-3.64,4.12
				c-0.63,0.16,0.16-0.48-0.16-0.32C137.8,134.99,134.31,138.64,130.51,142.92z M143.66,132.46c-0.16,0.32-0.33,0.35-0.48,0.63
				c-0.16,0.32-0.32,0.48-0.63,0.63c-0.16,0-0.32,0-0.32-0.16c0.16-0.63,0.63-1.27,1.27-1.43
				C143.66,132.14,143.66,132.3,143.66,132.46z M151.02,156.2c-0.07,0.17-0.23,0.32-0.39,0.46c0.2,0.04,0.34,0.13,0.21,0.25
				c-0.37,0.34-0.72,0.68-1.2,0.84c-0.03,0.01-0.13,0.03-0.24,0.03c-0.19,0.19-0.39,0.37-0.59,0.55c-0.19,0.17-1.06,0.05-0.79-0.19
				c0.4-0.36,0.77-0.74,1.17-1.11c0.22-0.2,0.46-0.4,0.66-0.63c0.11-0.13,0.2-0.25,0.34-0.35
				C150.31,155.97,151.15,155.89,151.02,156.2z M148.18,154.89c-0.01,0.01-0.03,0.02-0.04,0.03c-0.59,0.42-1.18,0.84-1.81,1.21
				c-0.68,0.39-1.39,0.69-2.09,1.03c-0.01-0.01-0.01-0.03-0.02-0.04c-0.05-0.07-0.16-0.12-0.27-0.06c-0.6,0.32-1.11,0.75-1.6,1.21
				c-0.07,0.07-0.15,0.14-0.22,0.21c0,0-0.01,0.01-0.01,0.01c0,0-0.01,0.01-0.01,0.01c-0.08,0.07-0.15,0.15-0.23,0.22
				c-0.01,0.01-0.02,0.02-0.03,0.03c0,0-0.01,0.01-0.01,0.01c-0.11,0.11-0.22,0.23-0.34,0.37c-0.08,0.09-0.11,0.15-0.21,0.22
				c-0.1,0.07-0.37,0.06-0.35-0.12c0-0.01,0-0.02,0-0.03c-0.09,0.05-0.19,0.1-0.28,0.14c-0.09,0.04-0.17,0.09-0.25,0.14
				c-0.03-0.01-0.07-0.02-0.11-0.02c-0.04,0-0.08,0.01-0.11,0.04c-0.19,0.15-0.39,0.31-0.57,0.48c-0.33,0.3-0.64,0.63-0.92,0.98
				c-0.01,0-0.01,0.01-0.01,0.01c-0.01,0.01-0.02,0.03-0.03,0.04c-0.02,0.02-0.03,0.04-0.05,0.06c-0.02,0.02-0.03,0.04-0.05,0.07
				c0,0.01-0.01,0.01-0.02,0.02c-0.04,0.05-0.07,0.11-0.11,0.16c0,0,0,0.01-0.01,0.01c-0.03,0.03-0.07,0.05-0.13,0.06
				c-0.02-0.03-0.04-0.06-0.06-0.09c-0.02-0.02-0.03-0.05-0.04-0.08c-0.05-0.08-0.09-0.17-0.14-0.25c0,0,0-0.01,0-0.01
				c-0.01-0.03-0.03-0.05-0.04-0.08c0.17-0.18,0.34-0.38,0.5-0.57c0.01-0.01,0.02-0.03,0.03-0.04c0.06-0.07,0.11-0.14,0.16-0.2
				c0.09-0.11,0.18-0.23,0.27-0.34c0.03-0.04,0.06-0.08,0.1-0.13c0.17-0.23,0.34-0.45,0.5-0.67c0-0.01,0.01-0.01,0.01-0.02
				c0.02-0.03,0.05-0.07,0.07-0.1c0.08-0.11,0.15-0.23,0.22-0.34c0.06-0.1,0.12-0.21,0.17-0.32c0-0.01,0.01-0.02,0.01-0.02
				c0.01-0.01,0.01-0.02,0.02-0.03c0.01-0.02,0.02-0.04,0.03-0.06c0.06-0.12,0.11-0.24,0.15-0.37c0-0.01,0.01-0.03,0.01-0.04
				c0.01-0.03,0.02-0.07,0.04-0.1c0.02-0.06,0.03-0.12,0.05-0.17l0,0c0-0.01,0.01-0.03,0.01-0.04c0.02-0.08,0.04-0.15,0.06-0.23
				c0.01-0.04,0-0.08-0.02-0.11c0.17-0.3,0.38-0.58,0.63-0.86c-0.02,0.01-0.05,0.03-0.07,0.04c-0.23,0.15-0.38,0.35-0.59,0.51
				c-0.17,0.13-0.49-0.08-0.29-0.24c0.14-0.1,0.24-0.22,0.36-0.33c0.01-0.01,0.01-0.02,0.02-0.03c0.26-0.26,0.51-0.59,0.81-0.8
				c0.18-0.13,0.34-0.24,0.49-0.37c0.02-0.02,0.05-0.04,0.07-0.06c0.11-0.15,0.23-0.28,0.35-0.4c0.01-0.01,0.01-0.01,0.02-0.02
				c1.52-1.46,4.07-1.4,6.07-2.33c0.79-0.32,1.74,0.16,2.54,0c0.48,0,0.95,0,1.43,0.32C150.8,153.2,149.48,154.08,148.18,154.89z
				 M151.43,143.87c-0.16-0.16,0.48,0,0.63-0.32c-0.48,0-0.79,0-1.27,0c-0.16,0-0.16-0.16-0.16-0.32c-0.79,0.16-1.74,0.48-2.54,0.63
				c-1.11,0.32-2.06,1.11-3.33,1.43c-1.74,0.63-3.17,2.06-5.07,2.69c-0.16,0-0.16-0.16-0.16-0.32c0.16-0.48,0.79-0.63,1.11-1.11
				c0-0.16,0-0.32-0.16-0.32c1.27-1.74,3.01-2.69,4.6-4.12c0-0.16,0-0.32,0-0.48c0.48-0.63,1.27-0.95,1.58-1.74
				c0.16-0.48,0.79-1.11,1.58-1.43c-0.16-0.16-0.48-0.16-0.48-0.48c-0.63,0-1.27,0.32-1.9-0.16c0.3-0.3,0.63-0.46,0.99-0.56
				c-0.14-0.03-0.26-0.1-0.36-0.23c-0.16-0.32,0.31-0.67,0.79-0.79c0.63-0.16,1.43-0.16,1.9-0.63c-1.11-0.16-2.38,0.32-3.49-0.32
				c0.79-2.06,2.06-3.8,3.96-4.75c0.16,0,0.48,0,0.48,0.16c0,0.79-0.48,1.43-1.27,1.58c1.27,0.32,2.54,0.32,3.8,0.95
				c-0.16,0.32-0.48,0.16-0.63,0.16c0.79,0.48,1.74,0.16,2.54,0.79c-0.48,0.48-0.95,0-1.43,0c4.91,1.43,10.14,2.54,14.26,5.7
				c-3.49,1.74-7.13,2.54-10.93,3.33c-0.48,0-0.79,0-1.27-0.16c0,0.16,0,0.48-0.16,0.48c-0.63,0-1.11,0-1.58,0.32
				C152.86,144.19,151.9,144.34,151.43,143.87z"/>
			<g>
				<path class="st1" d="M314.41,83.78H224.2c0,0,0.17,0.03,0.86,0.4c0.73,0.39,1.68,0.9,2.28,1.21c1.16,0.61,2.29,1.37,3.02,2.54
					c0.32,0.48,0.79,1.43,0.48,2.06c-0.32,0.79-0.48,2.06-1.27,2.38c-0.95,0.48-2.22,0.48-3.33,0.32c-0.63,0-1.27-0.16-1.9-0.32
					c2.38,0.95,4.6,2.06,6.18,4.28c0.16,0.32,0.79,0.48,1.43,0.48c0.16,0,0.16,0.32,0.16,0.48c-0.32,0.32-0.63,0.48-0.48,0.95
					c0.16,0,0.32,0,0.48,0c0.79-0.32,0.63-1.9,1.74-1.43c0.79,0.48,1.11,1.58,0.63,2.38c-0.63,0.63-1.27,1.11-1.9,1.58
					c-0.16,0.32-0.16,0.79,0,1.11c0.48,0.63,0.63,1.27,0.79,1.9c0.48,1.11,0.63,2.38,1.11,3.49c0.63,2.38,1.27,4.75,1.11,7.13
					c0,1.27-0.63,2.38-0.16,3.64c0.32,1.27,1.11,2.22,1.74,3.33c0.63,0.95,1.27,1.58,1.74,2.54c0.95,1.58,2.69,3.17,1.9,5.07
					c-0.48,1.11-2.22,0.95-3.33,1.58c-0.95,0.79-0.16,2.06,0.32,2.85c0.79,1.43-0.95,2.38-2.06,2.85c0.32,0.48,0.95,0.32,1.11,0.63
					c0.16,0.79,0.95,1.27,0.48,2.06c-0.63,0.95-2.54,1.43-1.58,2.85c0.63,1.11,0.22,2.34-0.16,3.49c-0.48,1.43-1.74,2.06-2.85,2.38
					c-0.95,0.32-2.06,0.32-3.01,0.16c-0.32-0.16-0.63-0.32-0.95-0.32c-2.69-0.32-5.39-1.11-8.08-1.11
					c-0.79,0.16-1.58,0.32-2.22,0.63c-0.72,0.53-1.35,1.1-1.92,1.7c-0.01,0.01-0.01,0.01-0.02,0.02c-0.12,0.13-0.23,0.25-0.35,0.38
					c-0.07,0.08-0.14,0.16-0.2,0.24c-0.05,0.05-0.09,0.11-0.13,0.16c-0.46,0.58-0.88,1.19-1.25,1.83c-0.02,0.04-0.05,0.08-0.07,0.12
					c-0.04,0.07-0.08,0.15-0.12,0.22c-0.52,0.96-0.91,1.95-1.2,2.91c-1.08,3.63-0.61,6.74,0.15,7.5c0.21,0.21,5.23,1.76,8.73,3.32
					c1.64,0.73,2.79,1.29,3.74,1.89h88.59V83.78z"/>
			</g>
			<path class="st2" d="M229.56,114.38c0.63,0.16,1.58,0.16,1.58,0.48c-0.32,1.27-2.22,1.58-3.17,2.85h-0.48
				c-0.48,0.32-0.32,1.11-0.79,1.11c-0.48-0.16-0.95,0-1.43,0.16c0.63,0.63,1.43,1.11,2.38,0.95c0.16,0,0.48,0.32,0.48,0.63
				c0,0,0.16,0,0.32-0.16c0.16,0,0.32,0,0.32,0.16v0.63c-0.48,0.63-1.27,0.32-1.9,0.48c1.27,0.32,2.54,0.32,3.64,0
				c0.95-0.32,0-1.9,0.63-2.69c-0.32,0,0-0.48-0.32-0.48c0.32-0.32,0.63-0.79,0.95-0.95c0.32,0,0.79-0.16,0.95-0.48
				c0-0.32-0.63-0.47-0.48-0.79c0.95-0.63,1.74-1.58,1.43-2.54c-0.16-0.48-1.43-0.48-2.22-0.79c-0.79-0.32-1.74,0-2.69,0.16
				c-0.79,0-1.59,0.48-2.38,0.63c-1.11,0.32-2.06,0.95-3.01,1.58c1.11-0.48,2.22-0.63,3.49-0.95
				C227.82,114.38,228.63,114.14,229.56,114.38z"/>
		</g>
	</g>
</g>
<g id="zone">
	
		<rect x="33.49" y="-33.49" transform="matrix(-1.836970e-16 1 -1 -1.836970e-16 676.2989 -33.4852)" class="st3" width="642.81" height="709.78"/>
	<rect x="83.78" y="83.78" class="st3" width="542.22" height="475.25"/>
</g>
</svg>
