<?xml version="1.0" encoding="utf-8"?>
<!-- Generator: Adobe Illustrator 25.0.0, SVG Export Plug-In . SVG Version: 6.00 Build 0)  -->
<svg version="1.1" id="Calque_1" xmlns="http://www.w3.org/2000/svg" xmlns:xlink="http://www.w3.org/1999/xlink" x="0px" y="0px"
	 viewBox="0 0 729.1 423.5" style="enable-background:new 0 0 729.1 423.5;" xml:space="preserve">
<g>
	<path d="M375.5,179.4v-74.2c0-12.4-6.2-18.6-18.6-18.6h-92.8c-12.4,0-18.6,6.2-18.6,18.6v74.2c0,10.3-4.3,18.4-13,24.1
		c-8.7,5.8-18.8,8.7-30.3,8.7c-11.6,0-21.7-2.9-30.3-8.7c-8.7-5.8-13-13.8-13-24.1v-74.2c0-43.7,17.5-74.4,52.6-92.2
		c14.4-7,32-11.3,52.6-13h92.8c43.7,0,74.4,17.5,92.2,52.6c7,14.4,11.3,32,13,52.6v74.2c0,10.3-4.3,18.4-13,24.1
		c-8.7,5.8-18.8,8.7-30.3,8.7c-11.6,0-21.7-2.9-30.3-8.7C379.8,197.7,375.5,189.7,375.5,179.4z"/>
</g>
<g>
	<path d="M465,324.1h-92.8c-20.6-1.7-38.2-6-52.6-13c-35.1-17.7-52.6-48.5-52.6-92.2v-74.2c0-10.3,4.3-18.3,13-24.1
		c8.7-5.8,18.8-8.7,30.3-8.7s21.7,2.9,30.3,8.7c8.7,5.8,13,13.8,13,24.1v74.2c0,12.4,6.2,18.6,18.6,18.6H465
		c12.4,0,18.6-6.2,18.6-18.6v-74.2c0-10.3,4.3-18.3,13-24.1c8.7-5.8,18.8-8.7,30.3-8.7s21.7,2.9,30.3,8.7c8.7,5.8,13,13.8,13,24.1
		v74.2c-1.7,20.6-6,38.2-13,52.6C539.4,306.5,508.7,324.1,465,324.1z"/>
</g>
<g>
	<path d="M55.9,424.7L4,369.5v53.2H0.1V360L52,414.8v-54h3.9V424.7z"/>
	<path d="M104.8,403.6c0,11.2-8.8,19.8-19.9,19.8c-10.9,0-19.7-8.9-19.7-19.7c0-10.9,8.7-19.9,19.7-19.9
		C96,383.9,104.8,392.4,104.8,403.6z M68.9,403.7c0,8.6,6.8,16.2,15.8,16.2c9.3,0,16.5-7.1,16.5-16.2c0-9.4-7.1-16.4-16.5-16.4
		C75.6,387.3,68.9,394.9,68.9,403.7z"/>
	<path d="M117.4,389.6h0.2c1.5-3.4,4.2-5.7,8.2-5.7c1.5,0,2.7,0.3,4,0.9l-2,3.3c-0.9-0.5-1.6-0.7-2.6-0.7c-8.3,0-7.8,10.3-7.8,15.9
		v19.4h-3.7v-37.9h3.7L117.4,389.6L117.4,389.6z"/>
	<path d="M140.9,389.5h0.2c1.7-3.5,5.5-5.6,9.5-5.6c4.8,0,8.7,2.5,10.7,6.9c2.1-4.5,6.2-6.9,11.1-6.9c9.8,0,11.7,6.6,11.7,14.9v23.8
		h-3.7v-24.3c0-5.8-0.9-11-8.1-11c-7.9,0-9.8,6.9-9.8,13.5v21.8h-3.7v-23.4c0-5.9-1.1-11.9-8.4-11.9c-8,0-9.4,8.3-9.4,14.4v20.8
		h-3.7v-37.9h3.7v4.9H140.9z"/>
	<path d="M230,422.6h-3.7v-6.8h-0.2c-2.8,4.8-8.9,7.6-14.4,7.6c-11.5,0-18.7-8.9-18.7-20s7.1-19.5,18.5-19.5
		c5.8,0,11.4,2.6,14.6,7.4h0.2v-6.6h3.7L230,422.6L230,422.6z M196.7,403.4c0,8.7,5.7,16.6,14.9,16.6c9.7,0,14.9-7.9,14.9-17
		c0-8.8-6-15.7-15.2-15.7C202.7,387.3,196.7,395.2,196.7,403.4z"/>
	<path d="M246.3,390.6h0.2c2.2-4.2,6.3-6.7,11.2-6.7c9.8,0,12.5,6.1,12.5,15.8v22.9h-3.7v-22.9c0-6.8-0.8-12.4-9.1-12.4
		c-9.5,0-11.1,8.9-11.1,16.6v18.7h-3.7v-37.9h3.7V390.6z"/>
	<path d="M312.5,415.8h-0.2c-2.8,4.8-8.9,7.6-14.4,7.6c-11.5,0-18.7-8.9-18.7-20s7.1-19.5,18.5-19.5c5.8,0,11.4,2.6,14.6,7.4h0.2
		V355h3.7v67.7h-3.7V415.8z M312.7,403c0-8.8-6-15.7-15.2-15.7c-8.7,0-14.7,7.9-14.7,16.1c0,8.7,5.7,16.6,14.9,16.6
		C307.5,420,312.7,412.1,312.7,403z"/>
	<path d="M335.5,372.1c0,1.9-1.5,3.4-3.4,3.4s-3.4-1.5-3.4-3.4c0-1.8,1.5-3.4,3.4-3.4S335.5,370.3,335.5,372.1z M333.9,422.6h-3.7
		v-37.9h3.7V422.6z"/>
	<path d="M348,404c-0.2,9.6,6.4,16,15.2,16c5.9,0,10.7-3.5,13.4-8.6l3.1,1.8c-3.4,6.6-9.5,10.3-17,10.3c-11.2,0-18.4-9.1-18.4-19.9
		c0-10.6,7.3-19.7,18.4-19.7c11.5,0,18.3,9.2,18.2,20.1L348,404L348,404z M377.2,400.5c-0.9-7-6.7-13.2-14.4-13.2
		c-7.7,0-14.1,6.1-14.8,13.2H377.2z"/>
	<path d="M453.1,360.7h3.9v38.6c0,6.3,0,11.7-4.2,16.9c-4.2,4.8-10.6,7.2-16.8,7.2c-6.2,0-12.6-2.5-16.8-7.2
		c-4.2-5.2-4.2-10.6-4.2-16.9v-38.6h3.9v37.4c0,5.6,0,11.5,3.2,15.6c3,3.9,9.1,6,13.9,6s10.8-2.1,13.9-6c3.2-4.1,3.2-10,3.2-15.6
		V360.7z"/>
	<path d="M473.1,390.6h0.2c2.2-4.2,6.3-6.7,11.2-6.7c9.8,0,12.5,6.1,12.5,15.8v22.9h-3.7v-22.9c0-6.8-0.8-12.4-9.1-12.4
		c-9.5,0-11.1,8.9-11.1,16.6v18.7h-3.7v-37.9h3.7V390.6z"/>
	<path d="M516.3,372.1c0,1.9-1.5,3.4-3.4,3.4c-1.9,0-3.4-1.5-3.4-3.4c0-1.8,1.5-3.4,3.4-3.4C514.8,368.7,516.3,370.3,516.3,372.1z
		 M514.7,422.6H511v-37.9h3.7V422.6z"/>
	<path d="M540.4,416l13.5-31.3h3.8l-17.3,40l-17.4-40h3.8L540.4,416z"/>
	<path d="M564.4,404c-0.2,9.6,6.4,16,15.2,16c5.9,0,10.7-3.5,13.4-8.6l3.1,1.8c-3.4,6.6-9.5,10.3-17,10.3
		c-11.2,0-18.4-9.1-18.4-19.9c0-10.6,7.3-19.7,18.4-19.7c11.5,0,18.3,9.2,18.2,20.1L564.4,404L564.4,404z M593.6,400.5
		c-0.9-7-6.6-13.2-14.4-13.2c-7.7,0-14.1,6.1-14.8,13.2H593.6z"/>
	<path d="M609.9,389.6h0.2c1.5-3.4,4.2-5.7,8.2-5.7c1.5,0,2.7,0.3,4,0.9l-2,3.3c-0.9-0.5-1.6-0.7-2.6-0.7c-8.3,0-7.8,10.3-7.8,15.9
		v19.4h-3.7v-37.9h3.7L609.9,389.6L609.9,389.6z"/>
	<path d="M645,391.6c-1.2-2.6-3.7-4.3-6.6-4.3c-3.2,0-6.5,2.6-6.5,5.9c0,9.1,18.5,4.7,18.5,18.4c0,7-5.4,11.8-12.2,11.8
		c-6.3,0-11.5-3.9-13-10l3.6-1.1c1.4,4.5,4.4,7.7,9.4,7.7c4.8,0,8.5-3.8,8.5-8.5s-3.6-6.2-7.4-7.5c-5.2-1.9-11.1-4.1-11.1-10.5
		c0-5.7,4.8-9.6,10.3-9.6c3.9,0,8,2.5,9.7,6.1L645,391.6z"/>
	<path d="M666.5,372.1c0,1.9-1.5,3.4-3.4,3.4s-3.4-1.5-3.4-3.4c0-1.8,1.5-3.4,3.4-3.4S666.5,370.3,666.5,372.1z M664.9,422.6h-3.7
		v-37.9h3.7V422.6z"/>
	<path d="M683.1,422.6h-3.7v-34.5h-4.2v-3.5h4.2v-13.5h3.7v13.5h6.6v3.5h-6.6V422.6z"/>
	<path d="M696.2,404c-0.2,9.6,6.4,16,15.2,16c5.9,0,10.7-3.5,13.4-8.6l3.1,1.8c-3.4,6.6-9.5,10.3-17,10.3
		c-11.2,0-18.4-9.1-18.4-19.9c0-10.6,7.3-19.7,18.4-19.7c11.5,0,18.3,9.2,18.2,20.1L696.2,404L696.2,404z M725.4,400.5
		c-0.9-7-6.6-13.2-14.4-13.2c-7.7,0-14.1,6.1-14.8,13.2H725.4z M718.7,365.6l-10.2,11.9l-3.1-1.4l8.3-12.1L718.7,365.6z"/>
</g>
</svg>
