<!DOCTYPE svg PUBLIC "-//W3C//DTD SVG 1.1//EN" "http://www.w3.org/Graphics/SVG/1.1/DTD/svg11.dtd">
<svg xmlns="http://www.w3.org/2000/svg" xmlns:xlink="http://www.w3.org/1999/xlink" version="1.1" width="124px"
     height="113px" viewBox="-0.5 -0.5 124 113">
    <defs/>
    <path d="M 10 53 L 10 3 Q 10 -7 18.66 -2 L 105.34 48 Q 114 53 105.34 58 L 18.66 108 Q 10 113 10 103 Z"
          fill="#1ddb96" stroke="#19bd81" stroke-width="4" stroke-miterlimit="10" transform="rotate(-90,62,53)"
          pointer-events="none"/>
    <ellipse cx="62" cy="66" rx="35" ry="35" fill="#f5f5f5" stroke="#666666" stroke-width="2" pointer-events="none"/>
    <rect x="17" y="56" width="90" height="20" rx="3" ry="3" fill="#f5f5f5" stroke="#666666" stroke-width="2"
          transform="rotate(-90,62,66)" pointer-events="none"/>
    <rect x="17" y="56" width="90" height="20" rx="3" ry="3" fill="#f5f5f5" stroke="#666666" stroke-width="2"
          transform="rotate(-45,62,66)" pointer-events="none"/>
    <rect x="17" y="56" width="90" height="20" rx="3" ry="3" fill="#f5f5f5" stroke="#666666" stroke-width="2"
          pointer-events="none"/>
    <rect x="17" y="56" width="90" height="20" rx="3" ry="3" fill="#f5f5f5" stroke="#666666" stroke-width="2"
          transform="rotate(-135,62,66)" pointer-events="none"/>
    <ellipse cx="62" cy="66" rx="33.5" ry="33.5" fill="#f5f5f5" stroke="#f5f5f5" pointer-events="none"/>
    <ellipse cx="62" cy="66" rx="17.5" ry="17.5" fill="#1ddb96" stroke="#666666" stroke-width="2"
             pointer-events="none"/>
</svg>