<?xml version="1.0" encoding="utf-8"?>
<!-- Generator: Adobe Illustrator 25.0.0, SVG Export Plug-In . SVG Version: 6.00 Build 0)  -->
<svg version="1.1" id="Calque_1" xmlns="http://www.w3.org/2000/svg" xmlns:xlink="http://www.w3.org/1999/xlink" x="0px" y="0px"
	 viewBox="0 0 542 475.3" style="enable-background:new 0 0 542 475.3;" xml:space="preserve">
<style type="text/css">
	.st0{fill:#000091;}
	.st1{fill:#E1000F;}
	.st2{fill:#9D9D9C;}
	.st3{fill:none;}
</style>
<g id="vect">
	<g>
		<g>
			<g>
				<path d="M0,125.8h19.3c13.9,0,22.5,7.1,22.5,18.9c0,7.6-3.7,13.3-10.1,16.3l19.9,28H36.2l-16.8-25.5h-6.6V189H0V125.8z
					 M12.8,136.7v15.8H20c5.4,0,8.6-2.9,8.6-8c0-4.8-3.2-7.8-8.6-7.8H12.8z"/>
				<path d="M59.5,125.8h36.8v10.9h-24v14.6h20.4v10.9H72.3v15.8h24V189H59.5V125.8z M71.9,120.4l10.2-12.2h13.2l-11.7,12.2H71.9z"
					/>
				<path d="M111.2,125.8H132c13.9,0,22.4,7.1,22.4,18.9c0,11.6-8.5,18.8-22.4,18.8h-8V189h-12.8V125.8z M124,136.7v15.8h8.6
					c5.4,0,8.7-2.9,8.7-8c0-4.8-3.2-7.8-8.7-7.8H124z"/>
				<path d="M202.2,125.8H215v38.4c0,16.6-9.7,26.5-25.6,26.5c-15.8,0-25.5-9.9-25.5-26.5v-38.4h12.8v39.5c0,8.5,4.8,13.4,12.8,13.4
					c7.9,0,12.7-5,12.7-13.4V125.8z"/>
				<path d="M230.9,125.8h18c13.2,0,21.1,6.5,21.1,17.1c0,5.1-2.4,9.5-6.7,12.4c6.7,3,10.4,8.4,10.4,15c0,11.5-8.9,18.6-23.5,18.6
					h-19.3V125.8z M243.7,136.7v13.8h5.4c4.9,0,7.7-2.4,7.7-6.9c0-4.2-2.8-6.9-7.7-6.9L243.7,136.7L243.7,136.7z M243.7,161.5v16.5
					h7.2c6,0,9.6-3.2,9.6-8.4s-3.6-8.1-9.6-8.1H243.7z"/>
				<path d="M286.8,125.8h12.8v51.5h24V189h-36.8V125.8z"/>
				<path d="M334.8,125.8h12.8V189h-12.8V125.8z"/>
				<path d="M431.6,193.4c1.3,0,3.2-0.2,4.5-0.7v10.8c-2.1,0.8-3.9,1.2-6.7,1.2c-7,0-13.5-2.9-19.8-8.3l-7.5-6.7
					c-2.7,0.7-5.6,1.1-8.7,1.1c-19.9,0-33.6-15.3-33.6-33.4c0-18.1,13.6-33.4,33.6-33.4c19.9,0,33.5,15.3,33.5,33.4
					c0,10.6-4.7,20.2-12.5,26.4l3.8,3.6C423.2,191.8,427.5,193.4,431.6,193.4z M413.8,157.4c0-12.1-8.5-21.4-20.3-21.4
					c-11.9,0-20.4,9.3-20.4,21.4c0,12.1,8.5,21.4,20.4,21.4C405.3,178.8,413.8,169.5,413.8,157.4z"/>
				<path d="M476.5,125.8h12.8v38.4c0,16.6-9.7,26.5-25.6,26.5c-15.8,0-25.5-9.9-25.5-26.5v-38.4H451v39.5c0,8.5,4.8,13.4,12.8,13.4
					c7.8,0,12.7-5,12.7-13.4L476.5,125.8L476.5,125.8z"/>
				<path d="M505.2,125.8H542v10.9h-24v14.6h20.4v10.9H518v15.8h24V189h-36.8V125.8z"/>
				<path d="M0,216.9h36.8v10.9h-24v14.6h20.4v10.9H12.8v26.7H0V216.9z"/>
				<path d="M48.1,216.9h19.3c13.9,0,22.5,7.1,22.5,18.9c0,7.6-3.7,13.3-10.1,16.3l19.9,28H84.3l-16.8-25.5h-6.6v25.5H48.1V216.9z
					 M60.9,227.8v15.8h7.2c5.4,0,8.6-2.9,8.6-8c0-4.8-3.2-7.8-8.6-7.8H60.9z"/>
				<path d="M126.2,216.9H143l23.9,63.2h-13.6l-6-16.4H122l-6,16.4h-13.6L126.2,216.9z M143.3,252.7l-8.7-23.7l-8.7,23.7H143.3z"/>
				<path d="M176.7,216.9h16.4l28.2,45.2v-45.2h12.8v63.2h-16.4l-28.2-45.4v45.4h-12.8V216.9z"/>
				<path d="M296.5,261.2l10.1,7.8c-4.9,6.7-12.5,11.4-21.6,12.5l-7.9,13.1h-11.4l7.9-13.3c-16.4-2.9-27.2-16.8-27.2-32.8
					c0-18,13.6-33.4,33.6-33.4c11.5,0,20.8,5.1,26.6,12.8l-10.1,7.9c-3.6-5.1-9.3-8.7-16.5-8.7c-11.9,0-20.4,9.3-20.4,21.4
					c0,12.1,8.5,21.4,20.4,21.4C287.2,269.9,292.9,266.3,296.5,261.2z"/>
				<path d="M333.2,216.9H350l23.9,63.2h-13.6l-6-16.4H329l-6,16.4h-13.6L333.2,216.9z M350.3,252.7l-8.7-23.7l-8.7,23.7H350.3z"/>
				<path d="M383.7,216.9h12.8v63.2h-12.8V216.9z"/>
				<path d="M417.8,262.7c3.8,4.9,8.8,7.8,14,7.8c5,0,8.1-2.7,8.1-7.3c0-11.3-28.9-8.8-28.9-29.8c0-10,8.2-18.3,20.2-18.3
					c9.5,0,16.8,4.2,22.1,10.6l-9.4,8.4c-3.7-4.8-7.8-7.9-12.6-7.9c-4.4,0-7.3,2.9-7.3,6.6c0,11.3,28.9,8.7,28.9,30.1
					c-0.2,11.7-9.4,19-20.9,19c-10.6,0-17.9-3.9-23.5-10.6L417.8,262.7z"/>
				<path d="M466.3,216.9h36.8v10.9h-24v14.6h20.4v10.9h-20.4v15.8h24v10.9h-36.8V216.9z"/>
			</g>
		</g>
		<g>
			<path d="M205.5,454.4c1.7,0,3.2,1.3,2.4,4.6l-8,1.8C201.4,457.2,203.7,454.4,205.5,454.4 M209.9,467.3h-1.6
				c-2,2.4-4.1,4.2-6.2,4.2c-2.2,0-3.3-1.3-3.3-4.2c0-1.2,0.1-2.4,0.4-3.5l12.8-4.2c2.5-5.9-0.5-8.5-4-8.5c-6.1,0-13,10.1-13,19
				c0,4,1.9,6.2,4.9,6.2C203.3,476.2,207,472.8,209.9,467.3 M207.4,448.7l9-8.4v-1h-4.9l-5.6,9.4L207.4,448.7L207.4,448.7z
				 M179.7,454.6h4.3l-6.8,18.5c-0.6,1.6,0.2,3.2,1.9,3.2c3.8,0,10-3.8,12.2-9h-1.2c-1.7,1.8-5,4.2-7.8,4.7l6.2-17.4h6.3l0.8-2.6
				h-6.2l2.4-6.7h-2.5l-4.4,6.7l-5.2,0.7L179.7,454.6L179.7,454.6z M173.9,453.7c0.5-1.7-0.6-2.7-1.5-2.7c-3.7,0-8.1,3.3-9.9,8h1.2
				c1.2-1.7,3.2-3.6,5.1-3.9l-7.1,18.4c-0.6,1.7,0.6,2.7,1.5,2.7c3.5,0,7.6-3.4,9.4-8h-1.2c-1.2,1.7-3.2,3.6-5.1,3.9L173.9,453.7z
				 M175.2,444.4c1.7,0,3.1-1.3,3.1-3.1c0-1.7-1.4-3.1-3.1-3.1c-1.7,0-3.1,1.4-3.1,3.1C172.2,443.1,173.5,444.4,175.2,444.4
				 M134.4,472.8c-0.9,2.1,0.1,3.4,2.1,3.4c1.2,0,1.8-0.3,2.3-1.7l4.9-13c2.3-2.8,6.9-5.7,8.8-5.7c1.3,0,1.2,1.1,0.3,2.8l-7.6,14.5
				c-0.7,1.4,0.2,3.2,1.9,3.2c3.7,0,8.1-3.3,9.9-8h-1.2c-1.2,1.7-3.2,3.6-5.1,3.9l6.5-13.1c0.8-1.7,1.2-3.2,1.2-4.5
				c0-2.1-1.2-3.5-3.4-3.5c-3.2,0-6.4,3.6-10.3,8.1v-3.4c0-2.5-0.8-4.6-3-4.6c-1.4,0-2.7,1.2-4,2.9v0.5c2.4-0.1,3.5,3.5,1.8,7.3
				L134.4,472.8z M134.4,456.7c0.9-3,0.4-5.7-1.9-5.7c-2.7,0-3.4,2.1-6.2,8.1v-3.4c0-2.5-0.8-4.6-3-4.6c-2.6,0-4.9,4-6.8,8h1.2
				c1.2-1.8,2.4-2.9,3.3-2.9c1.1,0,1.7,1.7,0,5.5l-5,11.1c-0.9,2.1,0.1,3.4,2.1,3.4c1.2,0,1.8-0.3,2.3-1.7l4.9-13
				c1.4-1.7,2.6-3.2,4.2-4.9H134.4z M105.9,454.4c1.7,0,3.2,1.3,2.4,4.6l-8,1.8C101.8,457.2,104.1,454.4,105.9,454.4 M110.3,467.3
				h-1.6c-2,2.4-4.1,4.2-6.2,4.2c-2.2,0-3.3-1.3-3.3-4.2c0-1.2,0.1-2.4,0.4-3.5l12.8-4.2c2.5-5.9-0.5-8.5-4-8.5
				c-6.1,0-13,10.1-13,19c0,4,1.9,6.2,4.9,6.2C103.7,476.2,107.4,472.8,110.3,467.3 M80.1,454.6h4.3l-6.8,18.5
				c-0.6,1.6,0.2,3.2,1.9,3.2c3.8,0,10.1-3.8,12.2-9h-1.2c-1.7,1.8-5,4.2-7.8,4.7l6.2-17.4h6.3l0.8-2.6h-6.2l2.4-6.7h-2.4l-4.4,6.7
				l-5.2,0.7L80.1,454.6L80.1,454.6z M56.7,469c0-5.7,6.3-13.4,9.9-13.4c0.8,0,1.5,0.1,2.2,0.3l-3.7,9.9c-2.1,2.6-5.4,5.7-6.9,5.7
				C57.3,471.4,56.7,470.7,56.7,469 M76.2,450l-1.9-0.1l-2.2,2.1h-0.5c-10.6,0-19.7,11.8-19.7,20.5c0,2.4,1.5,3.8,3.8,3.8
				c2.7,0,5.4-3.9,8.4-8.1l-0.1,1.5c-0.4,4.3,0.9,6.6,3.1,6.6c2.6,0,4.9-4,6.8-8h-1.2c-1.2,1.8-2.4,2.9-3.3,2.9c-1,0-1.7-1.8,0-5.5
				L76.2,450z M53.7,456.7c0.9-3,0.4-5.7-1.9-5.7c-2.7,0-3.4,2.1-6.2,8.1v-3.4c0-2.5-0.8-4.6-3-4.6c-2.6,0-4.9,4-6.8,8H37
				c1.2-1.8,2.4-2.9,3.3-2.9c1.1,0,1.7,1.7,0,5.5l-5,11.1c-0.9,2.1,0.1,3.4,2.1,3.4c1.2,0,1.8-0.3,2.3-1.7l4.9-13
				c1.4-1.7,2.6-3.2,4.2-4.9H53.7z M18.2,475.3l0.5-1.4c-6.2-1.2-6.9-1.2-4.5-7.9l2.5-6.9h6.8c3.1,0,3.1,1.2,2.6,4.6h1.8l4.1-11.2
				h-1.8c-1.5,2.6-2.7,4.6-6.1,4.6h-6.7l3.6-9.8c1.1-3.1,1.8-3.8,5.9-3.8h3c4.3,0,4.8,1.2,4.8,5.5h1.7l1.4-7.6H12.3l-0.5,1.4
				c4.9,1,5.4,1.5,3.1,7.9L9.4,466c-2.3,6.3-3.3,6.8-9,7.9L0,475.3H18.2z"/>
			<path d="M143.5,396.6c1.7,0,3.2,1.3,2.4,4.6l-8,1.9C139.4,399.3,141.7,396.6,143.5,396.6 M147.9,409.4h-1.6
				c-2,2.4-4.1,4.2-6.2,4.2c-2.2,0-3.3-1.3-3.3-4.2c0-1.2,0.1-2.4,0.4-3.5l12.8-4.2c2.5-5.9-0.5-8.5-4-8.5c-6.1,0-13,10.1-13,19
				c0,4,1.9,6.2,4.9,6.2C141.3,418.3,145,414.9,147.9,409.4 M145.4,390.8l9-8.4v-1h-4.9l-5.6,9.4H145.4z M117.7,396.7h4.3l-6.8,18.5
				c-0.6,1.6,0.2,3.1,1.9,3.1c3.8,0,10.1-3.8,12.2-9h-1.2c-1.7,1.8-5,4.2-7.8,4.7l6.2-17.4h6.3l0.8-2.6h-6.2l2.4-6.7h-2.4l-4.4,6.7
				l-5.2,0.7L117.7,396.7L117.7,396.7z M111.9,395.8c0.5-1.7-0.6-2.7-1.5-2.7c-3.7,0-8.1,3.3-9.9,8h1.2c1.2-1.7,3.2-3.6,5.1-3.9
				l-7.1,18.4c-0.6,1.7,0.6,2.7,1.5,2.7c3.5,0,7.6-3.4,9.4-8h-1.2c-1.2,1.7-3.2,3.6-5.1,3.9L111.9,395.8z M113.2,386.6
				c1.7,0,3.1-1.3,3.1-3.1c0-1.7-1.4-3.1-3.1-3.1c-1.7,0-3.1,1.4-3.1,3.1C110.2,385.2,111.5,386.6,113.2,386.6 M88.6,414.2
				l12.9-33.9l-0.4-0.5l-8.1,0.9v1l1.6,1.2c1.4,1.1,1,2.2-0.3,5.6l-10.1,26.6c-0.7,1.4,0.2,3.1,1.9,3.1c3.7,0,7.6-3.3,9.4-8h-1.2
				C93,412,90.5,413.9,88.6,414.2 M64.1,411.1c0-5.7,6.3-13.4,9.9-13.4c0.8,0,1.5,0.1,2.2,0.3l-3.7,9.9c-2.1,2.6-5.4,5.7-6.9,5.7
				C64.6,413.6,64.1,412.8,64.1,411.1 M83.6,392.1l-1.9-0.1l-2.2,2.1H79c-10.6,0-19.7,11.9-19.7,20.5c0,2.4,1.5,3.8,3.8,3.8
				c2.7,0,5.4-3.9,8.4-8.1l-0.1,1.5c-0.4,4.3,0.9,6.6,3.1,6.6c2.6,0,4.9-4,6.8-8h-1.2c-1.2,1.8-2.4,2.9-3.3,2.9c-1,0-1.7-1.8,0-5.5
				L83.6,392.1z M36.4,422.8c0-2.5,2.4-4,5.7-5.3c1.1,0.6,2.8,1.2,5,1.9c3.5,1.2,4.9,1.6,4.9,2.7c0,2.3-3.8,4-9.1,4
				C38.5,426.1,36.4,425.1,36.4,422.8 M46,407.9c-1.5,0-2.1-1.3-2.1-2.8c0-4.1,2.2-10.2,5.7-10.2c1.5,0,2.1,1.3,2.1,2.8
				C51.7,401.8,49.5,407.9,46,407.9 M56,420.5c0-3-2.6-4-6.9-5.3c-3.7-1.1-5.4-1.4-5.4-2.6c0-1,0.8-2.1,2.4-3
				c6.1-0.3,10-5.8,10-10.4c0-1-0.2-1.8-0.5-2.5h5.1l0.8-2.6h-8.1c-1-0.6-2.1-0.9-3.3-0.9c-6.4,0-10.6,5.6-10.6,10.2
				c0,3.5,2.2,5.6,4.9,6.2c-3,1.3-4.7,2.9-4.7,4.8c0,1.1,0.4,1.8,1.2,2.5c-6.9,2-9.7,4.4-9.7,7.6c0,3.2,4.2,4.5,9.2,4.5
				C49,429,56,424.4,56,420.5 M23.7,400.7c3.1,0,3.1,1.2,2.6,4.6h1.8l4.1-11.2h-1.8c-1.5,2.6-2.7,4.6-6.1,4.6h-6.7l3.4-9.3
				c1.1-3.1,1.8-3.7,5.9-3.7h3c4.3,0,4.8,1.2,4.8,5.5h1.7l1.4-7.6H12.3l-0.5,1.4c4.9,1,5.4,1.5,3.1,7.9l-5.6,15.2
				c-2.3,6.3-3.3,6.9-9,7.9L0,417.4h28.4l5.1-8.1h-1.9c-3.2,3.1-7.3,6-13,6c-7.6,0-6.8-0.3-4.3-7.2l2.7-7.4L23.7,400.7L23.7,400.7z
				 M27.4,381.3l9-6.2v-1H31l-5,7.2H27.4z"/>
			<path d="M140.5,338.7c1.7,0,3.2,1.3,2.4,4.6l-8,1.9C136.3,341.4,138.7,338.7,140.5,338.7 M144.9,351.5h-1.6
				c-2,2.4-4.1,4.2-6.2,4.2c-2.2,0-3.3-1.3-3.3-4.2c0-1.2,0.1-2.4,0.4-3.5l12.8-4.2c2.5-5.9-0.5-8.5-4-8.5c-6.1,0-13,10.1-13,19
				c0,4,1.9,6.2,4.9,6.2C138.3,360.4,141.9,357.1,144.9,351.5 M142.4,332.9l9-8.4v-1h-4.9l-5.6,9.4H142.4z M115.8,338.8h3.4
				l-6.8,18.5c-0.6,1.6,0.2,3.1,1.9,3.1c3.8,0,10.1-3.8,12.2-9h-1.2c-1.7,1.8-5,4.2-7.8,4.7l6.2-17.4h6.3l0.8-2.6h-6.2l2.4-6.7h-2.4
				l-4.4,6.7l-4.4,0.7L115.8,338.8L115.8,338.8z M112.5,340.9c0.9-3,0.4-5.6-1.9-5.6c-2.7,0-3.4,2.1-6.2,8.1v-3.4
				c0-2.5-0.8-4.6-3-4.6c-2.6,0-4.9,4-6.8,8h1.2c1.2-1.8,2.4-2.9,3.3-2.9c1.1,0,1.7,1.7,0,5.5l-5,11.1c-0.9,2.1,0.1,3.4,2.1,3.4
				c1.2,0,1.8-0.3,2.3-1.7l4.9-13c1.4-1.7,2.6-3.2,4.2-4.9H112.5z M84.1,338.7c1.7,0,3.2,1.3,2.4,4.6l-8,1.9
				C79.9,341.4,82.2,338.7,84.1,338.7 M88.5,351.5h-1.6c-2,2.4-4.1,4.2-6.2,4.2c-2.2,0-3.3-1.3-3.3-4.2c0-1.2,0.1-2.4,0.4-3.5
				l12.8-4.2c2.5-5.9-0.5-8.5-4-8.5c-6.1,0-13,10.1-13,19c0,4,1.9,6.2,4.9,6.2C81.9,360.4,85.5,357.1,88.5,351.5 M57,356.7
				c-1.2,0-3.1-1.2-3.1-2.2c0-0.3,0.6-1.8,1.2-3.6l2.1-5.5c2.2-2.6,5.6-5.5,7.5-5.5c1.2,0,2,0.7,2,2.5
				C66.8,347.5,62.1,356.7,57,356.7 M71.6,340.4c0-3.8-1.4-5.1-4-5.1c-3.2,0-6.3,3.4-9.4,7.6l7.7-20.3l-0.4-0.5l-8.1,0.9v1l1.6,1.2
				c1.4,1.1,1,2.3-0.3,5.6l-8.3,21.5c-0.6,1.6-1.3,3.4-1.3,3.9c0,2.2,3,4.3,5.7,4.3C61.1,360.4,71.6,349.1,71.6,340.4 M46.4,337.9
				c0.5-1.7-0.6-2.7-1.5-2.7c-3.7,0-8.1,3.3-9.9,8h1.2c1.2-1.7,3.2-3.6,5.1-3.9l-7.1,18.4c-0.7,1.7,0.7,2.7,1.5,2.7
				c3.5,0,7.6-3.4,9.4-8H44c-1.2,1.7-3.2,3.6-5.1,3.9L46.4,337.9z M47.7,328.7c1.7,0,3.1-1.3,3.1-3.1c0-1.7-1.4-3.1-3.1-3.1
				c-1.7,0-3.1,1.4-3.1,3.1C44.7,327.3,46,328.7,47.7,328.7 M29.1,325.7H12.2l-0.5,1.4c4.9,1,5.4,1.5,3.1,7.9l-5.5,15.2
				c-2.3,6.3-3.3,6.9-9,7.9L0,359.5h25.7l5.6-9.9h-1.9c-3.2,3.5-6.8,7.8-12.6,7.8c-4.3,0-4.8-0.7-2.5-7.2l5.5-15.2
				c2.3-6.3,3.3-6.9,9-7.9L29.1,325.7z"/>
		</g>
		<g>
			<path class="st0" d="M95.1,74c0.9-0.9,1.8-1.9,2.7-2.8h0c1.7-1.9,3.3-3.7,5.3-5.4c0.6-0.5,1.2-1,1.7-1.4c0.2-0.2,0.2-0.5,0.3-0.6
				c-0.8,0.3-1.3,0.9-2.1,1.3c-0.2,0-0.3-0.2-0.2-0.3c0.6-0.4,1.1-0.9,1.7-1.3c0,0-0.1,0-0.1,0c-0.2,0-0.2-0.2-0.2-0.3
				c-2.1-0.3-3.6,1.1-5.1,2.4c-0.3,0.2-0.6-0.2-0.8-0.2c-2.4,0.8-4.1,2.9-6.5,3.8c0-0.2,0-0.2,0-0.3c-0.9,0.3-1.9,0.9-2.9,1.1
				c-1.4,0.3-2.7,0.2-4,0.2c-1.9,0.2-3.8,0.6-5.8,1c-0.1,0-0.1,0-0.2,0c-1,0.3-2,0.7-2.9,1.2c0,0-0.1,0-0.1,0.1
				c-0.1,0.1-0.2,0.2-0.2,0.3c-0.3,0.4-0.6,0.7-1.1,0.9c-1,0.5-1.8,1.4-2.6,2.1c-0.1,0.1-0.2,0.1-0.2,0.1c-0.9,0.8-1.7,1.6-2.6,2.4
				c-0.1,0.1-0.3,0.1-0.5,0.1c0,0,0,0,0,0c0-0.1,0.1-0.1,0.1-0.1c0.1-0.2,0.3-0.4,0.4-0.7c0.1-0.2,0.3-0.5,0.5-0.7
				c0.2-0.3,0.4-0.6,0.7-1c0.1-0.1,0-0.1,0-0.2c-0.1-0.1-0.1-0.1-0.2-0.1c0.8-0.8,1.7-1.4,2.7-2c0,0,0,0,0,0c-0.1,0-0.3-0.1-0.2-0.2
				c0.1-0.1,0.2-0.3,0.3-0.4c0-0.1,0-0.1,0.1-0.1c0,0-0.1-0.1-0.1-0.1c-0.3,0.2-0.5,0.3-0.7,0.5c-0.4,0.3-0.7,1-1.2,1
				c0,0-0.1,0-0.2,0c-0.1,0-0.1,0-0.2-0.1c0,0,0,0,0,0c0,0,0,0,0,0c0,0,0,0,0,0c0-0.1,0.1-0.1,0.1-0.1s0.1-0.1,0.1-0.1
				c0,0,0-0.1,0.1-0.1c0-0.1,0.1-0.1,0.1-0.2c0-0.1,0.1-0.1,0.1-0.1c0.1-0.1,0.1-0.2,0.2-0.4c0-0.1,0.1-0.1,0.1-0.2
				c0.1-0.1,0.1-0.2,0.2-0.3c0.1-0.1,0-0.2-0.1-0.3c0.3-0.4,0.6-0.7,1.1-0.9h-0.1c0.6-0.3,1.2-0.7,1.8-1c0.1-0.1,0.2-0.1,0.3-0.2
				c-0.9,0.3-1.7,0.7-2.5,1.2c0,0-0.2,0.1-0.3,0.1c0,0-0.2,0.1-0.4-0.1c0,0,0-0.1,0-0.1c0.2-0.3,0.6-0.5,0.9-0.8
				c0.2,0,0.3,0,0.3,0.2c5.1-4,12-3,17.9-5.1c0.5-0.3,0.9-0.6,1.4-0.9c0.8-0.3,1.4-1.1,2.4-1.6c1.3-0.9,2.2-2.1,2.7-3.6
				c0-0.2-0.2-0.3-0.2-0.3c-2.1,2.2-4.4,4-7,5.2c-3.3,1.7-7,1.4-10.5,1.9c0.2-0.3,0.5-0.3,0.8-0.3c0-0.5,0.3-0.6,0.6-0.9
				c0.2,0,0.3,0,0.5,0c0.2,0,0.2-0.3,0.3-0.3c0.3,0,0.8-0.2,0.6-0.2c-0.5-0.6-1.4,0.5-2.2,0c0.3-0.3,0.2-0.8,0.5-0.9
				c0.2,0,0.5,0,0.6,0c0-0.3,0.3-0.6,0.3-0.6c2.4-1.4,4.6-2.5,6.8-3.8c-0.5,0-0.8,0.5-1.3,0.2c0.3,0,0-0.5,0.3-0.5
				c1.7-0.5,3.2-1.4,4.9-2.1c-0.6,0-1.1,0.5-1.7,0c0.3-0.2,0.5-0.5,0.9-0.5c0-0.2,0-0.3,0-0.5c0-0.2,0.2-0.2,0.3-0.2
				c-0.2,0-0.3-0.2-0.3-0.2c0.2-0.3,0.6-0.2,0.9-0.5c-0.2,0-0.5,0-0.5-0.2c0.5-0.6,1.3-0.8,2.1-0.9c-0.2-0.3-0.6,0-0.6-0.3
				c0-0.2,0.2-0.2,0.3-0.2c-0.2,0-0.2,0-0.3,0c-0.3-0.2-0.2-0.5-0.2-0.6c0.9-1.1,0.9-2.5,1.4-3.8c-0.2,0-0.3,0-0.3-0.2
				c-1.6,1.7-4.1,2.4-6.5,3c-0.2,0-0.6,0-0.8,0c-0.8,0.3-1.9,0.3-2.7-0.2c-0.6-0.3-0.9-0.8-1.6-1.3c-1.3-0.8-2.5-1.4-4-1.9
				c-4-1.3-8.1-1.9-12.2-1.7c1.7-0.9,3.7-1,5.6-1.6c2.7-0.8,5.2-1.7,8.1-1.6c-0.5-0.2-1.1,0-1.6,0c-2.2-0.2-4.4,0.5-6.8,0.9
				c-1.6,0.3-3,0.9-4.6,1.3c-0.9,0.3-1.4,1.3-2.5,1.1c0,0,0-0.3,0-0.5c1.6-1.9,3.5-3.8,6-4c2.9-0.5,5.6,0,8.4,0.3
				c2.1,0.2,4,0.6,6,1.1c0.8,0,0.9,1.3,1.6,1.4c0.9,0.3,1.9,0,2.9,0.6c0-0.3-0.2-0.6,0-0.9c0.6-0.6,1.4,0.2,2.1-0.2
				c1.3-0.8-1.1-2.2-1.7-3.3c0-0.2,0.2-0.3,0.2-0.3c1.3,1.1,2.2,2.4,3.8,3.2c0.8,0.3,2.7,0.8,2.4-0.2c-0.8-1.7-2.4-3.2-3.6-4.8
				c0-0.2,0-0.5,0-0.6c-0.3,0-0.3-0.2-0.5-0.3c0-0.2,0-0.5,0-0.6c-0.6-0.3-0.5-0.9-0.8-1.4c-0.5-0.8-0.2-1.9-0.5-2.8
				c-0.3-0.9-0.5-1.7-0.6-2.7c-0.5-2.7-1.1-5.1-1.4-7.6c-0.3-3,1.7-5.4,3.2-8.1c1.1-1.9,2.4-3.8,4.4-5.1c0.5-1.9,1.7-3.5,3-5.1
				c1.3-1.6,3.4-2.5,4.9-3.2c2.2-1,4.2-1.6,4.2-1.6H-0.2v83.9h77c3-2.2,6-3.2,10.2-5.3C89,77.6,93.6,75.5,95.1,74z M70.8,62.7
				c-0.3,0-0.9,0.2-0.8-0.2c0.2-0.8,1.3-0.8,1.9-1.1c0.3-0.2,0.8-0.5,1.1-0.3c0.3,0.5,0.8,0.3,1.1,0.6
				C73.1,62.7,71.9,62.2,70.8,62.7z M46.5,59.2c0,0-0.2-0.2-0.2-0.3c2.1-2.7,3.6-5.2,5.1-8.1c2.1-1.1,3.8-2.7,5.4-4.4
				c2.7-2.8,5.6-5.4,8.9-7c1.3-0.5,2.9-0.3,4.1,0.2c-0.5,0.6-1.3,0.5-1.9,0.9c-0.2,0-0.3,0-0.5-0.2c0.2-0.2,0.2-0.3,0.2-0.5
				c-1.6,1.7-3.8,2.5-5.1,4.6c-0.9,1.6-1.6,3.6-3.6,4.1c-0.6,0.2,0.2-0.5-0.2-0.3C53.8,51.2,50.3,54.9,46.5,59.2z M59.7,48.7
				c-0.2,0.3-0.3,0.4-0.5,0.6c-0.2,0.3-0.3,0.5-0.6,0.6c-0.2,0-0.3,0-0.3-0.2c0.2-0.6,0.6-1.3,1.3-1.4
				C59.7,48.4,59.7,48.5,59.7,48.7z M67,72.4c-0.1,0.2-0.2,0.3-0.4,0.5c0.2,0,0.3,0.1,0.2,0.2c-0.4,0.3-0.7,0.7-1.2,0.8
				c0,0-0.1,0-0.2,0c-0.2,0.2-0.4,0.4-0.6,0.6c-0.2,0.2-1.1,0.1-0.8-0.2c0.4-0.4,0.8-0.7,1.2-1.1c0.2-0.2,0.5-0.4,0.7-0.6
				c0.1-0.1,0.2-0.2,0.3-0.4C66.3,72.2,67.2,72.1,67,72.4z M64.2,71.1C64.2,71.1,64.2,71.2,64.2,71.1c-0.6,0.4-1.2,0.9-1.8,1.2
				c-0.7,0.4-1.4,0.7-2.1,1c0,0,0,0,0,0c-0.1-0.1-0.2-0.1-0.3-0.1c-0.6,0.3-1.1,0.8-1.6,1.2c-0.1,0.1-0.1,0.1-0.2,0.2l0,0l0,0
				C58,74.8,58,74.9,57.9,75c0,0,0,0,0,0l0,0c-0.1,0.1-0.2,0.2-0.3,0.4c-0.1,0.1-0.1,0.1-0.2,0.2s-0.4,0.1-0.4-0.1c0,0,0,0,0,0
				c-0.1,0.1-0.2,0.1-0.3,0.1s-0.2,0.1-0.2,0.1c0,0-0.1,0-0.1,0s-0.1,0-0.1,0c-0.2,0.1-0.4,0.3-0.6,0.5c-0.3,0.3-0.6,0.6-0.9,1
				c0,0,0,0,0,0c0,0,0,0,0,0c0,0,0,0-0.1,0.1s0,0-0.1,0.1c0,0,0,0,0,0c0,0.1-0.1,0.1-0.1,0.2c0,0,0,0,0,0c0,0-0.1,0.1-0.1,0.1
				c0,0,0-0.1-0.1-0.1c0,0,0-0.1,0-0.1c-0.1-0.1-0.1-0.2-0.1-0.2v0c0,0,0-0.1,0-0.1c0.2-0.2,0.3-0.4,0.5-0.6c0,0,0,0,0,0
				c0.1-0.1,0.1-0.1,0.2-0.2c0.1-0.1,0.2-0.2,0.3-0.3c0,0,0.1-0.1,0.1-0.1c0.2-0.2,0.3-0.4,0.5-0.7c0,0,0,0,0,0c0,0,0.1-0.1,0.1-0.1
				c0.1-0.1,0.1-0.2,0.2-0.3c0.1-0.1,0.1-0.2,0.2-0.3c0,0,0,0,0,0c0,0,0,0,0,0c0,0,0,0,0-0.1c0.1-0.1,0.1-0.2,0.1-0.4c0,0,0,0,0,0
				c0,0,0-0.1,0-0.1c0-0.1,0-0.1,0.1-0.2l0,0c0,0,0,0,0,0c0-0.1,0-0.1,0.1-0.2c0,0,0-0.1,0-0.1c0.2-0.3,0.4-0.6,0.6-0.9
				c0,0-0.1,0-0.1,0c-0.2,0.1-0.4,0.4-0.6,0.5c-0.2,0.1-0.5-0.1-0.3-0.2c0.1-0.1,0.2-0.2,0.4-0.3c0,0,0,0,0,0
				c0.3-0.3,0.5-0.6,0.8-0.8c0.2-0.1,0.3-0.2,0.5-0.4c0,0,0.1,0,0.1-0.1c0.1-0.1,0.2-0.3,0.4-0.4c0,0,0,0,0,0
				c1.5-1.5,4.1-1.4,6.1-2.3c0.8-0.3,1.7,0.2,2.5,0c0.5,0,0.9,0,1.4,0.3C66.8,69.4,65.5,70.3,64.2,71.1z M67.4,60.1
				c-0.2-0.2,0.5,0,0.6-0.3c-0.5,0-0.8,0-1.3,0c-0.2,0-0.2-0.2-0.2-0.3c-0.8,0.2-1.7,0.5-2.5,0.6c-1.1,0.3-2.1,1.1-3.3,1.4
				c-1.7,0.6-3.2,2.1-5.1,2.7c-0.2,0-0.2-0.2-0.2-0.3c0.2-0.5,0.8-0.6,1.1-1.1c0-0.2,0-0.3-0.2-0.3c1.3-1.7,3-2.7,4.6-4.1
				c0-0.2,0-0.3,0-0.5c0.5-0.6,1.3-0.9,1.6-1.7c0.2-0.5,0.8-1.1,1.6-1.4c-0.2-0.2-0.5-0.2-0.5-0.5c-0.6,0-1.3,0.3-1.9-0.2
				c0.3-0.3,0.6-0.5,1-0.6c-0.1,0-0.3-0.1-0.4-0.2c-0.2-0.3,0.3-0.7,0.8-0.8c0.6-0.2,1.4-0.2,1.9-0.6c-1.1-0.2-2.4,0.3-3.5-0.3
				c0.8-2.1,2.1-3.8,4-4.8c0.2,0,0.5,0,0.5,0.2c0,0.8-0.5,1.4-1.3,1.6c1.3,0.3,2.5,0.3,3.8,0.9c-0.2,0.3-0.5,0.2-0.6,0.2
				c0.8,0.5,1.7,0.2,2.5,0.8c-0.5,0.5-0.9,0-1.4,0c4.9,1.4,10.1,2.5,14.3,5.7c-3.5,1.7-7.1,2.5-10.9,3.3c-0.5,0-0.8,0-1.3-0.2
				c0,0.2,0,0.5-0.2,0.5c-0.6,0-1.1,0-1.6,0.3C68.9,60.4,67.9,60.6,67.4,60.1z"/>
			<g>
				<path class="st1" d="M230.4,0h-90.2c0,0,0.2,0,0.9,0.4c0.7,0.4,1.7,0.9,2.3,1.2c1.2,0.6,2.3,1.4,3,2.5c0.3,0.5,0.8,1.4,0.5,2.1
					c-0.3,0.8-0.5,2.1-1.3,2.4c-0.9,0.5-2.2,0.5-3.3,0.3c-0.6,0-1.3-0.2-1.9-0.3c2.4,0.9,4.6,2.1,6.2,4.3c0.2,0.3,0.8,0.5,1.4,0.5
					c0.2,0,0.2,0.3,0.2,0.5c-0.3,0.3-0.6,0.5-0.5,0.9c0.2,0,0.3,0,0.5,0c0.8-0.3,0.6-1.9,1.7-1.4c0.8,0.5,1.1,1.6,0.6,2.4
					c-0.6,0.6-1.3,1.1-1.9,1.6c-0.2,0.3-0.2,0.8,0,1.1c0.5,0.6,0.6,1.3,0.8,1.9c0.5,1.1,0.6,2.4,1.1,3.5c0.6,2.4,1.3,4.8,1.1,7.1
					c0,1.3-0.6,2.4-0.2,3.6c0.3,1.3,1.1,2.2,1.7,3.3c0.6,0.9,1.3,1.6,1.7,2.5c0.9,1.6,2.7,3.2,1.9,5.1c-0.5,1.1-2.2,0.9-3.3,1.6
					c-0.9,0.8-0.2,2.1,0.3,2.9c0.8,1.4-0.9,2.4-2.1,2.9c0.3,0.5,0.9,0.3,1.1,0.6c0.2,0.8,0.9,1.3,0.5,2.1c-0.6,0.9-2.5,1.4-1.6,2.9
					c0.6,1.1,0.2,2.3-0.2,3.5c-0.5,1.4-1.7,2.1-2.9,2.4c-0.9,0.3-2.1,0.3-3,0.2c-0.3-0.2-0.6-0.3-0.9-0.3c-2.7-0.3-5.4-1.1-8.1-1.1
					c-0.8,0.2-1.6,0.3-2.2,0.6c-0.7,0.5-1.4,1.1-1.9,1.7c0,0,0,0,0,0c-0.1,0.1-0.2,0.2-0.4,0.4c-0.1,0.1-0.1,0.2-0.2,0.2
					c-0.1,0.1-0.1,0.1-0.1,0.2c-0.5,0.6-0.9,1.2-1.2,1.8c0,0-0.1,0.1-0.1,0.1c0,0.1-0.1,0.1-0.1,0.2c-0.5,1-0.9,1.9-1.2,2.9
					c-1.1,3.6-0.6,6.7,0.1,7.5c0.2,0.2,5.2,1.8,8.7,3.3c1.6,0.7,2.8,1.3,3.7,1.9h88.6L230.4,0L230.4,0z"/>
			</g>
			<path class="st2" d="M145.6,30.6c0.6,0.2,1.6,0.2,1.6,0.5c-0.3,1.3-2.2,1.6-3.2,2.8h-0.5c-0.5,0.3-0.3,1.1-0.8,1.1
				c-0.5-0.2-0.9,0-1.4,0.2c0.6,0.6,1.4,1.1,2.4,0.9c0.2,0,0.5,0.3,0.5,0.6c0,0,0.2,0,0.3-0.2c0.2,0,0.3,0,0.3,0.2v0.6
				c-0.5,0.6-1.3,0.3-1.9,0.5c1.3,0.3,2.5,0.3,3.6,0c0.9-0.3,0-1.9,0.6-2.7c-0.3,0,0-0.5-0.3-0.5c0.3-0.3,0.6-0.8,0.9-0.9
				c0.3,0,0.8-0.2,0.9-0.5c0-0.3-0.6-0.5-0.5-0.8c0.9-0.6,1.7-1.6,1.4-2.5c-0.2-0.5-1.4-0.5-2.2-0.8c-0.8-0.3-1.7,0-2.7,0.2
				c-0.8,0-1.6,0.5-2.4,0.6c-1.1,0.3-2.1,0.9-3,1.6c1.1-0.5,2.2-0.6,3.5-0.9C143.8,30.6,144.6,30.4,145.6,30.6z"/>
		</g>
	</g>
</g>
<g id="zone">
	<rect x="-84" y="-83.8" class="st3" width="709.8" height="642.8"/>
	<rect x="-0.2" y="0" class="st3" width="542.2" height="475.3"/>
</g>
</svg>
