<?xml version="1.0" encoding="utf-8"?>
<!-- Generator: Adobe Illustrator 25.0.0, SVG Export Plug-In . SVG Version: 6.00 Build 0)  -->
<svg version="1.1" id="Calque_1" xmlns="http://www.w3.org/2000/svg" xmlns:xlink="http://www.w3.org/1999/xlink" x="0px" y="0px"
	 viewBox="0 0 153.4 81" style="enable-background:new 0 0 153.4 81;" xml:space="preserve">
<g>
	<path d="M153.3,52.8H149v6.4h4.4v-1.1h-3.2v-1.7h2.7v-1h-2.7v-1.5h3.1V52.8L153.3,52.8z M153,25.6h-4.4v6.3h4.4v-1.1h-3.2v-1.7h2.7
		v-1h-2.7v-1.5h3.1L153,25.6L153,25.6z M150.4,24.8l0.8,0.2l0.8-1.3h-1.1L150.4,24.8z M146.7,52.8h-1.2v6.4h1.2V52.8z M144.8,31.9
		v-5.3h2v-1.1h-5.3v1.1h2v5.3H144.8z M139.4,53.8h1.1c0.3,0,0.6,0.1,0.8,0.2s0.4,0.2,0.6,0.4c0.2,0.2,0.3,0.4,0.4,0.7
		c0.1,0.3,0.1,0.5,0.1,0.8s0,0.6-0.1,0.8c-0.1,0.3-0.2,0.5-0.4,0.7s-0.4,0.3-0.6,0.4c-0.2,0.1-0.5,0.2-0.8,0.2h-1.1V53.8L139.4,53.8
		z M140.5,52.8h-2.3v6.4h2.3c0.5,0,0.9-0.1,1.3-0.2s0.7-0.4,1-0.7s0.5-0.6,0.6-1s0.2-0.8,0.2-1.3c0-0.4-0.1-0.8-0.2-1.2
		c-0.1-0.4-0.3-0.7-0.6-1s-0.6-0.5-1-0.7C141.5,52.9,141,52.8,140.5,52.8 M138.5,31.9h1.2v-6.4h-1.2V31.9z M135.9,31.6
		c0.2-0.2,0.4-0.3,0.5-0.6c0.1-0.2,0.2-0.5,0.2-0.9c0-0.3-0.1-0.5-0.1-0.7c-0.1-0.2-0.2-0.4-0.4-0.5s-0.4-0.3-0.6-0.4
		c-0.3-0.1-0.5-0.2-0.9-0.3c-0.2-0.1-0.4-0.1-0.6-0.2c-0.2,0-0.3-0.1-0.4-0.2s-0.2-0.1-0.3-0.2s-0.1-0.2-0.1-0.3
		c0-0.2,0.1-0.4,0.2-0.5c0.2-0.1,0.4-0.2,0.8-0.2c0.2,0,0.4,0,0.6,0.1c0.2,0,0.4,0.1,0.5,0.2c0.2,0.1,0.3,0.1,0.4,0.2
		s0.2,0.1,0.2,0.2l0.6-1c-0.3-0.2-0.6-0.4-1-0.5s-0.8-0.2-1.2-0.2c-0.3,0-0.6,0-0.9,0.1c-0.3,0.1-0.5,0.2-0.8,0.4
		c-0.2,0.2-0.4,0.4-0.5,0.6s-0.2,0.5-0.2,0.9c0,0.2,0,0.5,0.1,0.6c0.1,0.2,0.2,0.3,0.3,0.5c0.1,0.1,0.3,0.2,0.6,0.3
		c0.2,0.1,0.5,0.2,0.8,0.3c0.2,0.1,0.5,0.1,0.7,0.2c0.2,0.1,0.4,0.1,0.5,0.2c0.1,0.1,0.2,0.2,0.3,0.2c0.1,0.1,0.1,0.2,0.1,0.3
		c0,0.4-0.3,0.7-1,0.7c-0.2,0-0.5,0-0.7-0.1s-0.4-0.1-0.6-0.2s-0.4-0.2-0.5-0.3s-0.2-0.2-0.3-0.2l-0.6,1.1c0.4,0.3,0.8,0.5,1.3,0.6
		s0.9,0.2,1.4,0.2c0.3,0,0.6,0,0.9-0.1C135.4,31.8,135.7,31.7,135.9,31.6 M131.4,52.8h-1v6.4h1.2v-4.1l3.3,4.1h1v-6.4h-1.2V57
		L131.4,52.8z M127.9,28.7h-1.6v-2.1h1.5c0.1,0,0.2,0,0.3,0.1c0.1,0,0.2,0.1,0.3,0.2c0.1,0.1,0.1,0.2,0.2,0.3
		c0.1,0.1,0.1,0.3,0.1,0.4c0,0.1,0,0.3-0.1,0.4c0,0.1-0.1,0.2-0.2,0.3c-0.1,0.1-0.2,0.2-0.3,0.2C128.1,28.7,128,28.7,127.9,28.7
		 M127.5,29.8l1.3,2.1h1.4l-1.5-2.4c0.4-0.2,0.6-0.4,0.8-0.7s0.3-0.7,0.3-1.1c0-0.3-0.1-0.5-0.1-0.8c-0.1-0.2-0.2-0.5-0.4-0.7
		s-0.4-0.4-0.6-0.5c-0.2-0.1-0.5-0.2-0.8-0.2h-2.8v6.4h1.2v-2.1C126.3,29.8,127.5,29.8,127.5,29.8z M124.9,56.7l0.9-2.5l0.9,2.5
		H124.9z M125.3,52.8l-2.4,6.4h1.3l0.6-1.6h2.2l0.6,1.6h1.3l-2.4-6.4H125.3z M119.9,30.8v-1.7h2.7v-1h-2.7v-1.5h3.1v-1.1h-4.4v6.4
		h4.4v-1.1H119.9z M116.2,52.8h-1.3v6.4h1.2v-4.3l1.6,3.1h0.7l1.6-3.1v4.2h1.2v-6.4h-1.3l-1.9,3.6L116.2,52.8z M114.8,39.2h-1v6.4
		h1.2v-4.1l3.3,4.1h1v-6.4h-1.2v4.2L114.8,39.2z M111,25.6l2.5,6.4h1l2.5-6.4h-1.3l-1.7,4.8l-1.7-4.8H111z M110.7,53.8
		c0.1,0,0.2,0,0.3,0.1c0.1,0.1,0.2,0.1,0.3,0.2c0.1,0.1,0.1,0.2,0.2,0.3c0.1,0.1,0.1,0.3,0.1,0.4s0,0.3-0.1,0.4
		c0,0.1-0.1,0.2-0.2,0.3c-0.1,0.1-0.2,0.2-0.3,0.2c-0.1,0-0.2,0.1-0.3,0.1h-1.6v-1.9L110.7,53.8L110.7,53.8z M110.8,52.8H108v6.4
		h1.2v-2.1h1.2l1.3,2.1h1.4l-1.5-2.4c0.3-0.1,0.6-0.4,0.8-0.7s0.3-0.7,0.3-1.1c0-0.3-0.1-0.5-0.2-0.8s-0.2-0.5-0.4-0.7
		s-0.4-0.4-0.6-0.5C111.3,52.8,111.1,52.8,110.8,52.8 M111.5,39.2h-4.3v6.4h4.4v-1.1h-3.2v-1.7h2.7v-1h-2.7v-1.5h3.1V39.2z
		 M108.1,31.9h1.2v-6.4h-1.2V31.9z M101.1,56c0-0.3,0-0.5,0.1-0.8c0.1-0.2,0.2-0.5,0.3-0.7c0.2-0.2,0.3-0.4,0.6-0.5s0.5-0.2,0.8-0.2
		s0.6,0.1,0.8,0.2c0.2,0.1,0.4,0.3,0.6,0.5s0.3,0.4,0.4,0.7c0.1,0.3,0.1,0.5,0.1,0.8s0,0.5-0.1,0.8c-0.1,0.2-0.2,0.5-0.4,0.7
		c-0.2,0.2-0.3,0.4-0.6,0.5c-0.2,0.1-0.5,0.2-0.8,0.2s-0.6-0.1-0.8-0.2c-0.2-0.1-0.4-0.3-0.6-0.5s-0.3-0.4-0.4-0.7
		C101.2,56.5,101.1,56.2,101.1,56 M100.1,54.7c-0.2,0.4-0.2,0.8-0.2,1.2c0,0.4,0.1,0.8,0.2,1.2c0.2,0.4,0.4,0.7,0.6,1
		c0.3,0.3,0.6,0.5,1,0.7s0.8,0.3,1.3,0.3c0.4,0,0.9-0.1,1.2-0.3c0.4-0.2,0.7-0.4,1-0.7c0.3-0.3,0.5-0.6,0.7-1s0.2-0.8,0.2-1.2
		c0-0.4-0.1-0.8-0.2-1.2c-0.2-0.4-0.4-0.7-0.6-1c-0.3-0.3-0.6-0.6-1-0.7c-0.4-0.2-0.8-0.3-1.3-0.3c-0.4,0-0.9,0.1-1.2,0.3
		c-0.4,0.2-0.7,0.4-1,0.7C100.5,54,100.3,54.3,100.1,54.7 M104.5,25.6v4.2l-3.3-4.2h-1v6.3h1.2v-4.1l3.3,4.1h1v-6.4
		C105.8,25.6,104.5,25.6,104.5,25.6z M101.3,43.1l0.9-2.5l0.9,2.5H101.3z M101.7,39.2l-2.4,6.4h1.3l0.6-1.6h2.2l0.6,1.6h1.3
		l-2.4-6.4H101.7z M93.5,52.8h-1v6.4h1.2v-4.1l3.3,4.1h1v-6.4h-1.2V57L93.5,52.8z M96.8,25.6v3.2c0,0.3,0,0.5-0.1,0.8
		s-0.1,0.5-0.3,0.7s-0.3,0.3-0.5,0.5c-0.2,0.1-0.4,0.2-0.7,0.2s-0.5-0.1-0.7-0.2c-0.2-0.1-0.4-0.3-0.5-0.5s-0.2-0.4-0.3-0.7
		s-0.1-0.5-0.1-0.8v-3.2h-1.2v3.2c0,0.4,0.1,0.8,0.2,1.2s0.3,0.7,0.5,1s0.5,0.5,0.9,0.7s0.8,0.3,1.3,0.3s0.9-0.1,1.3-0.2
		c0.3-0.2,0.6-0.4,0.9-0.7c0.2-0.3,0.4-0.6,0.5-1s0.2-0.8,0.2-1.2v-3.2L96.8,25.6L96.8,25.6z M92.3,41.1c-0.1,0.4-0.2,0.8-0.2,1.2
		s0.1,0.8,0.2,1.2s0.4,0.7,0.6,1c0.3,0.3,0.6,0.6,1,0.8s0.8,0.3,1.2,0.3c0.3,0,0.5,0,0.8-0.1s0.5-0.2,0.8-0.3
		c0.2-0.1,0.4-0.3,0.6-0.5s0.3-0.4,0.4-0.6l-1-0.6c-0.1,0.2-0.2,0.3-0.3,0.4s-0.2,0.2-0.4,0.3c-0.1,0.1-0.3,0.1-0.4,0.2
		c-0.2,0-0.3,0-0.4,0c-0.3,0-0.5-0.1-0.8-0.2s-0.4-0.3-0.6-0.5s-0.3-0.4-0.4-0.7s-0.1-0.5-0.1-0.8c0-0.2,0-0.5,0.1-0.8
		s0.2-0.5,0.3-0.7c0.2-0.2,0.3-0.4,0.6-0.5c0.2-0.1,0.5-0.2,0.8-0.2c0.1,0,0.3,0,0.4,0s0.3,0.1,0.4,0.2s0.3,0.2,0.4,0.3
		s0.2,0.3,0.3,0.5l0.9-0.7c-0.2-0.4-0.5-0.8-1-1s-0.9-0.4-1.5-0.4c-0.5,0-0.9,0.1-1.3,0.3s-0.7,0.4-1,0.7
		C92.7,40.4,92.5,40.8,92.3,41.1 M70.9,44.9L70.9,44.9L70.9,44.9c0,0.3-0.2,0.5-0.5,0.5c-0.1,0-0.3,0-0.4-0.2l-9-10.1
		c-0.1-0.1-0.1-0.2-0.1-0.3c0-0.2,0.2-0.5,0.5-0.5h1.3c0.2,0,0.3,0.1,0.4,0.2l6.2,7v-6.8c0-0.2,0.2-0.5,0.4-0.5h0.9
		c0.2,0,0.4,0.2,0.4,0.5v10.2H70.9z M57.5,44.6c0,0.2-0.2,0.5-0.5,0.5h-6.7c-0.2,0-0.5-0.2-0.5-0.5v-0.9c0-0.2,0.2-0.5,0.5-0.5H57
		c0.2,0,0.5,0.2,0.5,0.5V44.6z M57.5,40.1c0,0.2-0.2,0.5-0.5,0.5h-6.7c-0.2,0-0.5-0.2-0.5-0.5v-0.9c0-0.2,0.2-0.5,0.5-0.5H57
		c0.2,0,0.5,0.2,0.5,0.5V40.1z M57.5,35.6c0,0.2-0.2,0.5-0.5,0.5h-6.7c-0.2,0-0.5-0.2-0.5-0.5v-0.9c0-0.2,0.2-0.5,0.5-0.5H57
		c0.2,0,0.5,0.2,0.5,0.5V35.6z M47.5,44.6c0,0.2-0.2,0.4-0.5,0.4h-1.1c-0.2,0-0.4-0.1-0.4-0.3c0,0-5-9-5.1-9.1
		c0-0.1-0.1-0.2-0.1-0.2l0.1-0.2l0.5-1c0.1-0.2,0.2-0.3,0.4-0.3l0,0l0,0c0.2,0,0.3,0.1,0.4,0.3L47.5,44.6
		C47.4,44.3,47.5,44.5,47.5,44.6 M43.2,28.9c0,0.3-0.2,0.5-0.5,0.5l0,0h-0.5c-2.9,0-5.1,0.9-7,2.6c-1.7,1.6-2.9,3.7-3.2,6.2l0,0
		c0,0.2-0.2,0.5-0.5,0.5h-1.1c-0.2,0-0.5-0.2-0.5-0.5l0,0l0,0l0,0c0.3-3,1.8-5.6,3.9-7.6c2.2-2,5-3.1,8.1-3.1h0.2h0.3
		c0.3,0,0.4,0.2,0.5,0.5L43.2,28.9z M27.4,34.1c0,0.2-0.2,0.5-0.5,0.5h-1.2c-0.2,0-0.5-0.2-0.5-0.5v-0.9c0-0.2,0.2-0.5,0.5-0.5H27
		c0.2,0,0.5,0.2,0.5,0.5L27.4,34.1L27.4,34.1z M19.3,34.4l6.2,7v-4.3c0-0.2,0.2-0.5,0.5-0.5h0.9c0.2,0,0.5,0.2,0.5,0.5v7.6l0,0l0,0
		c0,0.3-0.2,0.5-0.5,0.5c-0.1,0-0.3,0-0.4-0.2l-9.1-10.1c-0.1-0.1-0.1-0.2-0.1-0.3c0-0.2,0.2-0.5,0.5-0.5H19
		C19.1,34.2,19.2,34.3,19.3,34.4 M14.7,43.4c1,0,1.9-0.3,2.7-0.9V39l0,0v-0.1c0-0.2,0.2-0.4,0.4-0.4l0,0c0.1,0,0.3,0.1,0.4,0.2
		l0.8,1c0.1,0.1,0.2,0.2,0.2,0.4v3.1c0,0,0,0.2-0.2,0.3c-1.1,1-2.7,1.7-4.3,1.7c-2.5,0-4.5-2-4.5-4.4v-6c0-0.3,0.2-0.5,0.5-0.5h0.9
		c0.2,0,0.4,0.2,0.4,0.5v6C12,42.1,13.2,43.4,14.7,43.4 M42.9,44.2c0.1,0.1,0.1,0.4,0,0.5c-0.1,0.2-0.2,0.2-0.4,0.2h-6.3
		c-0.1,0-0.3,0-0.4-0.1c-0.2-0.1-0.2-0.4,0-0.6l3-6.1c0.1-0.2,0.2-0.3,0.5-0.3s0.3,0.1,0.4,0.3l0.5,0.9c0,0,0.1,0.3,0.1,0.4
		s0,0.2-0.1,0.2c0,0.1-1.1,2.2-1.7,3.5h3.6c0.1,0,0.2,0,0.3,0.1c0.1,0,0.2,0.2,0.2,0.2L42.9,44.2L42.9,44.2z M30,40.9L30,40.9
		c0-0.2,0.2-0.5,0.5-0.5h1.1c0.3,0,0.5,0.2,0.5,0.5l0,0c0.3,2.5,1.5,4.7,3.2,6.3c1.9,1.7,3.9,2.5,6.8,2.5h0.5l0,0
		c0.2,0,0.5,0.2,0.5,0.5l-0.2,0.9c0,0.3-0.2,0.5-0.5,0.5h-0.3H42c-3.1,0-6-1.1-8.1-3.1C31.8,46.5,30.4,43.9,30,40.9L30,40.9L30,40.9
		L30,40.9z M61,39.1C61,39.1,61,39,61,39.1c0.1-0.3,0.2-0.5,0.4-0.5l0,0c0.1,0,0.3,0.1,0.4,0.2l0.8,1c0.1,0.1,0.2,0.2,0.2,0.4v4.5
		c0,0.2-0.2,0.5-0.4,0.5h-0.9c-0.2,0-0.4-0.2-0.4-0.5L61,39.1C61,39.1,61,39.1,61,39.1 M81,40.5C81,18.1,62.9,0,40.5,0
		S0,18.1,0,40.5S18.1,81,40.5,81S81,62.8,81,40.5"/>
</g>
</svg>
