<?xml version="1.0" encoding="utf-8"?>
<!-- Generator: Adobe Illustrator 25.0.0, SVG Export Plug-In . SVG Version: 6.00 Build 0)  -->
<svg version="1.1" id="Calque_1" xmlns="http://www.w3.org/2000/svg" xmlns:xlink="http://www.w3.org/1999/xlink" x="0px" y="0px"
	 viewBox="0 0 153.3 80.6" style="enable-background:new 0 0 153.3 80.6;" xml:space="preserve">
<style type="text/css">
	.st0{fill:#FFFFFF;}
</style>
<g>
	<path class="st0" d="M153.3,52.4h-4.4v6.4h4.4v-1.1h-3.2V56h2.7v-1h-2.7v-1.5h3.1L153.3,52.4L153.3,52.4z M152.9,25.2h-4.4v6.3h4.4
		v-1.1h-3.1v-1.7h2.7v-1h-2.7v-1.5h3.1V25.2L152.9,25.2z M150.4,24.4l0.8,0.2l0.8-1.3h-1.1L150.4,24.4z M146.7,52.4h-1.2v6.4h1.2
		V52.4z M144.8,31.5v-5.3h2v-1.1h-5.3v1.1h2v5.3H144.8z M139.4,53.4h1.1c0.3,0,0.6,0.1,0.8,0.2s0.4,0.2,0.6,0.4
		c0.2,0.2,0.3,0.4,0.4,0.7c0.1,0.3,0.1,0.5,0.1,0.8s0,0.6-0.1,0.8c-0.1,0.3-0.2,0.5-0.4,0.7s-0.4,0.3-0.6,0.4
		c-0.2,0.1-0.5,0.2-0.8,0.2h-1.1V53.4L139.4,53.4z M140.4,52.4h-2.3v6.4h2.3c0.5,0,0.9-0.1,1.3-0.2s0.7-0.4,1-0.7s0.5-0.6,0.6-1
		s0.2-0.8,0.2-1.3c0-0.4-0.1-0.8-0.2-1.2c-0.1-0.4-0.3-0.7-0.6-1s-0.6-0.5-1-0.7C141.4,52.5,141,52.4,140.4,52.4 M138.5,31.5h1.2
		v-6.4h-1.2V31.5z M135.8,31.2c0.2-0.2,0.4-0.3,0.5-0.6c0.1-0.2,0.2-0.5,0.2-0.9c0-0.3-0.1-0.5-0.1-0.7c-0.1-0.2-0.2-0.4-0.4-0.5
		s-0.4-0.3-0.6-0.4c-0.3-0.1-0.5-0.2-0.9-0.3c-0.2-0.1-0.4-0.1-0.6-0.2c-0.2,0-0.3-0.1-0.4-0.2s-0.2-0.1-0.3-0.2s-0.1-0.2-0.1-0.3
		c0-0.2,0.1-0.4,0.2-0.5c0.2-0.1,0.4-0.2,0.8-0.2c0.2,0,0.4,0,0.6,0.1c0.2,0,0.4,0.1,0.5,0.2c0.2,0.1,0.3,0.1,0.4,0.2
		s0.2,0.1,0.2,0.2l0.6-1c-0.3-0.2-0.6-0.4-1-0.5s-0.8-0.2-1.2-0.2c-0.3,0-0.6,0-0.9,0.1c-0.3,0.1-0.5,0.2-0.8,0.4
		c-0.2,0.2-0.4,0.4-0.5,0.6s-0.2,0.5-0.2,0.9c0,0.2,0,0.5,0.1,0.6c0.1,0.2,0.2,0.3,0.3,0.5c0.1,0.1,0.3,0.2,0.6,0.3
		c0.2,0.1,0.5,0.2,0.8,0.3c0.2,0.1,0.5,0.1,0.7,0.2c0.2,0.1,0.4,0.1,0.5,0.2c0.1,0.1,0.2,0.2,0.3,0.2c0.1,0.1,0.1,0.2,0.1,0.3
		c0,0.4-0.3,0.7-1,0.7c-0.2,0-0.5,0-0.7-0.1s-0.4-0.1-0.6-0.2s-0.4-0.2-0.5-0.3s-0.2-0.2-0.3-0.2l-0.6,1.1c0.4,0.3,0.8,0.5,1.3,0.6
		s0.9,0.2,1.4,0.2c0.3,0,0.6,0,0.9-0.1C135.4,31.4,135.6,31.3,135.8,31.2 M131.3,52.4h-1v6.4h1.2v-4.1l3.3,4.1h1v-6.4h-1.2v4.2
		L131.3,52.4z M127.8,28.3h-1.6v-2.1h1.5c0.1,0,0.2,0,0.3,0.1c0.1,0,0.2,0.1,0.3,0.2c0.1,0.1,0.1,0.2,0.2,0.3
		c0.1,0.1,0.1,0.3,0.1,0.4c0,0.1,0,0.3-0.1,0.4c0,0.1-0.1,0.2-0.2,0.3c-0.1,0.1-0.2,0.2-0.3,0.2C128,28.3,127.9,28.3,127.8,28.3
		 M127.5,29.4l1.3,2.1h1.4l-1.5-2.4c0.4-0.2,0.6-0.4,0.8-0.7s0.3-0.7,0.3-1.1c0-0.3-0.1-0.5-0.1-0.8c-0.1-0.2-0.2-0.5-0.4-0.7
		s-0.4-0.4-0.6-0.5c-0.2-0.1-0.5-0.2-0.8-0.2h-2.8v6.4h1.2v-2.1C126.3,29.4,127.5,29.4,127.5,29.4z M124.9,56.3l0.9-2.5l0.9,2.5
		H124.9z M125.2,52.4l-2.4,6.4h1.3l0.6-1.6h2.2l0.6,1.6h1.3l-2.4-6.4H125.2z M119.9,30.4v-1.7h2.7v-1h-2.7v-1.5h3.1v-1.1h-4.4v6.4
		h4.4v-1.1H119.9z M116.1,52.4h-1.3v6.4h1.2v-4.3l1.6,3.1h0.7l1.6-3.1v4.2h1.2v-6.4h-1.3l-1.9,3.6L116.1,52.4z M114.7,38.8h-1v6.4
		h1.2v-4.1l3.3,4.1h1v-6.4H118V43L114.7,38.8z M110.9,25.2l2.5,6.4h1l2.5-6.4h-1.3l-1.7,4.8l-1.7-4.8H110.9z M110.6,53.4
		c0.1,0,0.2,0,0.3,0.1c0.1,0.1,0.2,0.1,0.3,0.2c0.1,0.1,0.1,0.2,0.2,0.3c0.1,0.1,0.1,0.3,0.1,0.4s0,0.3-0.1,0.4
		c0,0.1-0.1,0.2-0.2,0.3c-0.1,0.1-0.2,0.2-0.3,0.2c-0.1,0-0.2,0.1-0.3,0.1H109v-1.9L110.6,53.4L110.6,53.4z M110.7,52.4h-2.8v6.4
		h1.2v-2.1h1.2l1.3,2.1h1.4l-1.5-2.4c0.4-0.1,0.6-0.4,0.8-0.7c0.2-0.3,0.3-0.7,0.3-1.1c0-0.3-0.1-0.5-0.1-0.8
		c-0.1-0.3-0.2-0.5-0.4-0.7c-0.2-0.2-0.4-0.4-0.6-0.5C111.3,52.4,111,52.4,110.7,52.4 M111.4,38.8h-4.3v6.4h4.4v-1.1h-3.2v-1.7h2.7
		v-1h-2.7v-1.5h3.1V38.8z M108,31.5h1.2v-6.4H108V31.5z M101.1,55.6c0-0.3,0-0.5,0.1-0.8c0.1-0.2,0.2-0.5,0.4-0.7
		c0.2-0.2,0.3-0.4,0.6-0.5c0.2-0.1,0.5-0.2,0.8-0.2s0.6,0.1,0.8,0.2c0.2,0.1,0.4,0.3,0.6,0.5s0.3,0.4,0.4,0.7
		c0.1,0.3,0.1,0.5,0.1,0.8s0,0.5-0.1,0.8c-0.1,0.2-0.2,0.5-0.4,0.7c-0.2,0.2-0.3,0.4-0.6,0.5c-0.2,0.1-0.5,0.2-0.8,0.2
		s-0.6-0.1-0.8-0.2c-0.2-0.1-0.4-0.3-0.6-0.5s-0.3-0.4-0.4-0.7C101.1,56.1,101.1,55.8,101.1,55.6 M100.1,54.3
		c-0.2,0.4-0.2,0.8-0.2,1.2c0,0.4,0.1,0.8,0.2,1.2c0.2,0.4,0.4,0.7,0.6,1c0.3,0.3,0.6,0.5,1,0.7s0.8,0.3,1.3,0.3
		c0.4,0,0.9-0.1,1.2-0.3c0.4-0.2,0.7-0.4,1-0.7c0.3-0.3,0.5-0.6,0.6-1c0.2-0.4,0.2-0.8,0.2-1.2c0-0.4-0.1-0.8-0.2-1.2
		c-0.2-0.4-0.4-0.7-0.6-1c-0.3-0.3-0.6-0.6-1-0.7c-0.4-0.2-0.8-0.3-1.3-0.3c-0.4,0-0.9,0.1-1.2,0.3c-0.4,0.2-0.7,0.4-1,0.7
		S100.2,53.9,100.1,54.3 M104.5,25.2v4.2l-3.3-4.2h-1v6.3h1.2v-4.1l3.3,4.1h1v-6.4C105.7,25.2,104.5,25.2,104.5,25.2z M101.2,42.7
		l0.9-2.5l0.9,2.5H101.2z M101.6,38.8l-2.4,6.4h1.3l0.6-1.6h2.2l0.6,1.6h1.3l-2.4-6.4H101.6z M93.4,52.4h-1v6.4h1.2v-4.1l3.3,4.1h1
		v-6.4h-1.2v4.2L93.4,52.4z M96.7,25.2v3.2c0,0.3,0,0.5-0.1,0.8s-0.1,0.5-0.3,0.7c-0.1,0.2-0.3,0.3-0.5,0.5
		c-0.2,0.1-0.4,0.2-0.7,0.2c-0.3,0-0.5-0.1-0.7-0.2s-0.4-0.3-0.5-0.5s-0.2-0.4-0.3-0.7s-0.1-0.5-0.1-0.8v-3.2h-1.2v3.2
		c0,0.4,0.1,0.8,0.2,1.2s0.3,0.7,0.5,1s0.5,0.5,0.9,0.7s0.8,0.3,1.3,0.3s0.9-0.1,1.3-0.2c0.4-0.2,0.6-0.4,0.9-0.7
		c0.2-0.3,0.4-0.6,0.5-1s0.2-0.8,0.2-1.2v-3.2L96.7,25.2L96.7,25.2z M92.3,40.7c-0.1,0.4-0.2,0.8-0.2,1.2s0.1,0.8,0.2,1.2
		c0.2,0.4,0.4,0.7,0.6,1c0.3,0.3,0.6,0.6,1,0.8s0.8,0.3,1.2,0.3c0.3,0,0.5,0,0.8-0.1s0.5-0.2,0.8-0.3c0.2-0.1,0.4-0.3,0.6-0.5
		s0.3-0.4,0.4-0.6l-1-0.6c-0.1,0.2-0.2,0.3-0.3,0.4c-0.1,0.1-0.2,0.2-0.4,0.3c-0.1,0.1-0.3,0.1-0.4,0.2c-0.2,0-0.3,0-0.4,0
		c-0.3,0-0.5-0.1-0.8-0.2c-0.2-0.1-0.4-0.3-0.6-0.5s-0.3-0.4-0.4-0.7s-0.1-0.5-0.1-0.8c0-0.2,0-0.5,0.1-0.8s0.2-0.5,0.3-0.7
		c0.2-0.2,0.3-0.4,0.6-0.5c0.2-0.1,0.5-0.2,0.8-0.2c0.1,0,0.3,0,0.4,0s0.3,0.1,0.4,0.2s0.3,0.2,0.4,0.3s0.2,0.3,0.3,0.5l0.9-0.7
		c-0.2-0.4-0.5-0.8-1-1c-0.4-0.3-0.9-0.4-1.5-0.4c-0.5,0-0.9,0.1-1.3,0.3s-0.7,0.4-1,0.7C92.6,40,92.4,40.4,92.3,40.7 M70.8,44.5
		L70.8,44.5L70.8,44.5c0,0.3-0.2,0.5-0.5,0.5c-0.1,0-0.3,0-0.4-0.2l-9-10.1c-0.1-0.1-0.1-0.3-0.1-0.4c0-0.2,0.2-0.5,0.4-0.5h1.3
		c0.2,0,0.3,0.1,0.4,0.2l6.2,7v-6.8c0-0.2,0.2-0.5,0.4-0.5h0.9c0.2,0,0.4,0.2,0.4,0.5C70.8,34.2,70.8,44.5,70.8,44.5z M57.4,44.2
		c0,0.2-0.2,0.5-0.4,0.5h-6.7c-0.2,0-0.5-0.2-0.5-0.5v-0.9c0-0.2,0.2-0.5,0.5-0.5H57c0.2,0,0.4,0.2,0.4,0.5V44.2z M57.4,39.7
		c0,0.2-0.2,0.5-0.4,0.5h-6.7c-0.2,0-0.5-0.2-0.5-0.5v-0.9c0-0.2,0.2-0.5,0.5-0.5H57c0.2,0,0.4,0.2,0.4,0.5V39.7z M57.4,35.2
		c0,0.2-0.2,0.5-0.4,0.5h-6.7c-0.2,0-0.5-0.2-0.5-0.5v-0.9c0-0.2,0.2-0.5,0.5-0.5H57c0.2,0,0.4,0.2,0.4,0.5V35.2z M47.5,44.2
		c0,0.2-0.2,0.4-0.5,0.4h-1.1c-0.2,0-0.4-0.1-0.4-0.3c0,0-5-9-5.1-9.1c0-0.1-0.1-0.2-0.1-0.2l0.1-0.2l0.5-1c0.1-0.2,0.2-0.3,0.4-0.3
		l0,0l0,0c0.2,0,0.3,0.1,0.4,0.3L47.5,44.2C47.4,43.9,47.5,44.1,47.5,44.2 M43.2,28.5c0,0.3-0.2,0.5-0.5,0.5l0,0h-0.5
		c-2.9,0-5.1,0.9-7,2.6c-1.7,1.6-2.9,3.7-3.2,6.2l0,0c0,0.2-0.2,0.5-0.5,0.5h-1.1c-0.2,0-0.5-0.2-0.5-0.5l0,0l0,0l0,0
		c0.3-3,1.8-5.6,3.9-7.6c2.2-2,5-3.1,8.1-3.1h0.2h0.3c0.3,0,0.4,0.2,0.5,0.5L43.2,28.5z M27.4,33.7c0,0.2-0.2,0.5-0.5,0.5h-1.2
		c-0.2,0-0.5-0.2-0.5-0.5v-0.9c0-0.2,0.2-0.5,0.5-0.5h1.2c0.2,0,0.5,0.2,0.5,0.5V33.7z M19.3,34l6.2,7v-4.3c0-0.2,0.2-0.5,0.4-0.5
		h0.9c0.2,0,0.5,0.2,0.5,0.5v7.6l0,0l0,0c0,0.3-0.2,0.5-0.5,0.5c-0.1,0-0.3,0-0.4-0.2l-9.1-10.1c-0.1-0.1-0.1-0.2-0.1-0.3
		c0-0.2,0.2-0.5,0.5-0.5H19C19.1,33.8,19.2,33.9,19.3,34 M14.6,43c1,0,1.9-0.3,2.7-0.9v-3.5l0,0v-0.1c0-0.2,0.2-0.4,0.4-0.4l0,0
		c0.1,0,0.3,0.1,0.4,0.2l0.8,1c0.1,0.1,0.2,0.2,0.2,0.4v3.1c0,0,0,0.2-0.2,0.3c-1.1,1-2.7,1.7-4.3,1.7c-2.5,0-4.5-2-4.5-4.4v-6
		c0-0.3,0.2-0.5,0.5-0.5h0.9c0.2,0,0.5,0.2,0.5,0.5v6C11.9,41.7,13.2,43,14.6,43 M42.8,43.8c0.1,0.1,0.1,0.4,0,0.5
		c-0.1,0.2-0.2,0.2-0.4,0.2h-6.3c-0.1,0-0.3,0-0.4-0.1c-0.2-0.1-0.2-0.4,0-0.6l3-6.1c0.1-0.2,0.2-0.3,0.5-0.3s0.3,0.1,0.4,0.3
		l0.5,0.9c0,0,0.1,0.3,0.1,0.4s0,0.2-0.1,0.2c0,0.1-1.1,2.2-1.7,3.5H42c0.1,0,0.2,0,0.3,0.1c0.1,0,0.2,0.2,0.2,0.2L42.8,43.8
		L42.8,43.8z M30,40.5L30,40.5c0-0.2,0.2-0.5,0.5-0.5h1.1c0.3,0,0.5,0.2,0.5,0.5l0,0c0.3,2.5,1.5,4.7,3.2,6.3
		c1.9,1.7,3.9,2.5,6.8,2.5h0.5l0,0c0.2,0,0.5,0.2,0.5,0.5l-0.2,0.9c0,0.3-0.2,0.5-0.5,0.5h-0.3H42c-3.1,0-6-1.1-8.1-3.1
		C31.7,46.1,30.3,43.5,30,40.5L30,40.5L30,40.5L30,40.5z M60.9,38.7C60.9,38.7,60.9,38.6,60.9,38.7c0.1-0.3,0.2-0.5,0.4-0.5l0,0
		c0.1,0,0.3,0.1,0.4,0.2l0.8,1c0.1,0.1,0.2,0.2,0.2,0.4v4.5c0,0.2-0.2,0.5-0.4,0.5h-0.9c-0.2,0-0.4-0.2-0.4-0.5L60.9,38.7
		C60.9,38.7,60.9,38.7,60.9,38.7 M81,40.1C81,17.7,62.9-0.4,40.5-0.4S0,17.7,0,40.1s18.1,40.5,40.5,40.5S81,62.4,81,40.1"/>
</g>
</svg>
