<svg xmlns="http://www.w3.org/2000/svg" version="1.1" xmlns:xlink="http://www.w3.org/1999/xlink" xmlns:svgjs="http://svgjs.dev/svgjs" viewBox="0 0 800 800" opacity="0.19"><defs><linearGradient x1="50%" y1="0%" x2="50%" y2="100%" id="vvvortex-grad"><stop stop-color="hsl(230, 54%, 40%)" stop-opacity="1" offset="0%"></stop><stop stop-color="hsl(230, 51%, 61%)" stop-opacity="1" offset="100%"></stop></linearGradient></defs><g stroke="url(#vvvortex-grad)" fill="none" stroke-linecap="round"><circle r="437" cx="400" cy="400" stroke-width="5" stroke-dasharray="25 25" stroke-dashoffset="25" transform="rotate(203, 400, 400)" opacity="0.05"></circle><circle r="425.5" cx="400" cy="400" stroke-width="5" stroke-dasharray="45 51" stroke-dashoffset="25" transform="rotate(350, 400, 400)" opacity="0.08"></circle><circle r="414" cx="400" cy="400" stroke-width="5" stroke-dasharray="26 13" stroke-dashoffset="25" transform="rotate(215, 400, 400)" opacity="0.10"></circle><circle r="402.5" cx="400" cy="400" stroke-width="5" stroke-dasharray="22 55" stroke-dashoffset="25" transform="rotate(232, 400, 400)" opacity="0.13"></circle><circle r="391" cx="400" cy="400" stroke-width="5" stroke-dasharray="42 19" stroke-dashoffset="25" transform="rotate(21, 400, 400)" opacity="0.15"></circle><circle r="379.5" cx="400" cy="400" stroke-width="4" stroke-dasharray="12 51" stroke-dashoffset="25" transform="rotate(135, 400, 400)" opacity="0.18"></circle><circle r="368" cx="400" cy="400" stroke-width="4" stroke-dasharray="42 53" stroke-dashoffset="25" transform="rotate(47, 400, 400)" opacity="0.20"></circle><circle r="356.5" cx="400" cy="400" stroke-width="4" stroke-dasharray="35 20" stroke-dashoffset="25" transform="rotate(43, 400, 400)" opacity="0.23"></circle><circle r="345" cx="400" cy="400" stroke-width="4" stroke-dasharray="35 31" stroke-dashoffset="25" transform="rotate(327, 400, 400)" opacity="0.26"></circle><circle r="333.5" cx="400" cy="400" stroke-width="4" stroke-dasharray="42 25" stroke-dashoffset="25" transform="rotate(76, 400, 400)" opacity="0.28"></circle><circle r="322" cx="400" cy="400" stroke-width="4" stroke-dasharray="28 15" stroke-dashoffset="25" transform="rotate(21, 400, 400)" opacity="0.31"></circle><circle r="310.5" cx="400" cy="400" stroke-width="4" stroke-dasharray="26 26" stroke-dashoffset="25" transform="rotate(250, 400, 400)" opacity="0.33"></circle><circle r="299" cx="400" cy="400" stroke-width="4" stroke-dasharray="45 34" stroke-dashoffset="25" transform="rotate(265, 400, 400)" opacity="0.36"></circle><circle r="287.5" cx="400" cy="400" stroke-width="4" stroke-dasharray="17 36" stroke-dashoffset="25" transform="rotate(195, 400, 400)" opacity="0.38"></circle><circle r="276" cx="400" cy="400" stroke-width="3" stroke-dasharray="45 29" stroke-dashoffset="25" transform="rotate(18, 400, 400)" opacity="0.41"></circle><circle r="264.5" cx="400" cy="400" stroke-width="3" stroke-dasharray="38 16" stroke-dashoffset="25" transform="rotate(40, 400, 400)" opacity="0.44"></circle><circle r="253" cx="400" cy="400" stroke-width="3" stroke-dasharray="52 53" stroke-dashoffset="25" transform="rotate(335, 400, 400)" opacity="0.46"></circle><circle r="241.5" cx="400" cy="400" stroke-width="3" stroke-dasharray="28 23" stroke-dashoffset="25" transform="rotate(103, 400, 400)" opacity="0.49"></circle><circle r="230" cx="400" cy="400" stroke-width="3" stroke-dasharray="14 11" stroke-dashoffset="25" transform="rotate(316, 400, 400)" opacity="0.51"></circle><circle r="218.5" cx="400" cy="400" stroke-width="3" stroke-dasharray="45 12" stroke-dashoffset="25" transform="rotate(43, 400, 400)" opacity="0.54"></circle><circle r="207" cx="400" cy="400" stroke-width="3" stroke-dasharray="53 52" stroke-dashoffset="25" transform="rotate(314, 400, 400)" opacity="0.56"></circle><circle r="195.5" cx="400" cy="400" stroke-width="3" stroke-dasharray="40 52" stroke-dashoffset="25" transform="rotate(147, 400, 400)" opacity="0.59"></circle><circle r="184" cx="400" cy="400" stroke-width="3" stroke-dasharray="23 44" stroke-dashoffset="25" transform="rotate(331, 400, 400)" opacity="0.61"></circle><circle r="172.5" cx="400" cy="400" stroke-width="3" stroke-dasharray="42 17" stroke-dashoffset="25" transform="rotate(70, 400, 400)" opacity="0.64"></circle><circle r="161" cx="400" cy="400" stroke-width="2" stroke-dasharray="48 22" stroke-dashoffset="25" transform="rotate(250, 400, 400)" opacity="0.67"></circle><circle r="149.5" cx="400" cy="400" stroke-width="2" stroke-dasharray="14 33" stroke-dashoffset="25" transform="rotate(271, 400, 400)" opacity="0.69"></circle><circle r="138" cx="400" cy="400" stroke-width="2" stroke-dasharray="16 37" stroke-dashoffset="25" transform="rotate(242, 400, 400)" opacity="0.72"></circle><circle r="126.5" cx="400" cy="400" stroke-width="2" stroke-dasharray="27 25" stroke-dashoffset="25" transform="rotate(353, 400, 400)" opacity="0.74"></circle><circle r="115" cx="400" cy="400" stroke-width="2" stroke-dasharray="37 55" stroke-dashoffset="25" transform="rotate(205, 400, 400)" opacity="0.77"></circle><circle r="103.5" cx="400" cy="400" stroke-width="2" stroke-dasharray="54 11" stroke-dashoffset="25" transform="rotate(238, 400, 400)" opacity="0.79"></circle><circle r="92" cx="400" cy="400" stroke-width="2" stroke-dasharray="54 51" stroke-dashoffset="25" transform="rotate(168, 400, 400)" opacity="0.82"></circle><circle r="80.5" cx="400" cy="400" stroke-width="2" stroke-dasharray="18 29" stroke-dashoffset="25" transform="rotate(335, 400, 400)" opacity="0.85"></circle><circle r="69" cx="400" cy="400" stroke-width="2" stroke-dasharray="11 46" stroke-dashoffset="25" transform="rotate(265, 400, 400)" opacity="0.87"></circle><circle r="57.5" cx="400" cy="400" stroke-width="1" stroke-dasharray="27 35" stroke-dashoffset="25" transform="rotate(124, 400, 400)" opacity="0.90"></circle><circle r="46" cx="400" cy="400" stroke-width="1" stroke-dasharray="43 21" stroke-dashoffset="25" transform="rotate(24, 400, 400)" opacity="0.92"></circle><circle r="34.5" cx="400" cy="400" stroke-width="1" stroke-dasharray="20 47" stroke-dashoffset="25" transform="rotate(342, 400, 400)" opacity="0.95"></circle><circle r="23" cx="400" cy="400" stroke-width="1" stroke-dasharray="28 43" stroke-dashoffset="25" transform="rotate(204, 400, 400)" opacity="0.97"></circle><circle r="11.5" cx="400" cy="400" stroke-width="1" stroke-dasharray="14 20" stroke-dashoffset="25" transform="rotate(89, 400, 400)" opacity="1.00"></circle></g></svg>